<svg xmlns="http://www.w3.org/2000/svg"  viewBox="0 0 1000 132" version="1.1">
<style type="text/css">
#astra,
#luna {
    fill: black;
}

@media all and (max-width: 992px) {
    #astra,
    #luna {
        fill: white;
    }
}
</style>
<g id="astra">
<path id="astra" style="stroke:none;fill-rule:nonzero;fill-opacity:1;" d="M 640.078125 1.179688 C 631.910156 1.660156 626.480469 2.441406 620.546875 3.992188 C 610.25 6.652344 601.246094 11.492188 595.046875 17.691406 C 592.992188 19.75 591.648438 21.398438 590.320312 23.523438 C 585.851562 30.628906 584.878906 40.132812 587.867188 47.539062 C 589.015625 50.40625 590.746094 52.984375 593.265625 55.589844 C 601.09375 63.695312 613.746094 68.878906 629.59375 70.484375 C 636.996094 71.238281 646.410156 71.210938 656.117188 70.429688 C 658.832031 70.195312 663.464844 69.730469 664.230469 69.59375 C 664.667969 69.511719 664.574219 69.675781 661.394531 74.394531 C 653.210938 86.558594 645.808594 96.875 641.574219 101.976562 C 636.996094 107.515625 632.5 111.867188 628.839844 114.320312 C 628.097656 114.8125 627.359375 115.253906 627.207031 115.292969 C 627.042969 115.320312 624.917969 114.925781 622.464844 114.402344 C 606.726562 111.027344 597.832031 109.65625 588.675781 109.175781 C 578.542969 108.640625 570.664062 109.863281 565.796875 112.714844 C 564.273438 113.59375 562.480469 115.390625 561.890625 116.582031 C 560.835938 118.777344 560.808594 121.015625 561.820312 123.140625 C 563.824219 127.324219 570.894531 130.421875 580.519531 131.3125 C 589.578125 132.164062 598.996094 131.300781 608.207031 128.789062 C 612.636719 127.582031 619.378906 125.183594 623.957031 123.179688 C 624.671875 122.878906 625.328125 122.617188 625.425781 122.617188 C 625.535156 122.617188 627.109375 123.042969 628.933594 123.566406 C 644.574219 128.035156 655.675781 130.546875 664.203125 131.546875 C 667.316406 131.902344 672.742188 132.042969 675.199219 131.820312 C 687.371094 130.722656 701.367188 124.59375 716.5 113.773438 C 720.390625 110.972656 722.953125 108.78125 724.613281 106.804688 C 724.96875 106.367188 725.777344 105.570312 726.394531 105.035156 C 727.011719 104.515625 728.507812 103.195312 729.710938 102.128906 C 733.386719 98.875 738.953125 94.226562 739.183594 94.226562 C 739.226562 94.226562 738.472656 95.171875 737.5 96.3125 C 728.121094 107.449219 723.023438 115.664062 722.707031 120.203125 C 722.558594 122.414062 723.148438 124.910156 724.257812 126.691406 C 724.957031 127.816406 726.628906 129.449219 727.792969 130.148438 C 729.738281 131.3125 732.332031 131.945312 735.15625 131.945312 C 737.195312 131.945312 738.730469 131.671875 741.023438 130.902344 C 746.875 128.957031 754.757812 123.851562 762.75 116.859375 C 763.722656 115.992188 764.488281 115.402344 764.433594 115.527344 C 764.378906 115.664062 764.214844 116.460938 764.050781 117.308594 C 763.804688 118.585938 763.761719 119.148438 763.832031 120.699219 C 763.980469 124.347656 764.984375 126.816406 767.21875 129.066406 C 768.503906 130.355469 769.574219 131.011719 771.328125 131.5625 C 772.21875 131.835938 772.632812 131.875 774.34375 131.875 C 776.097656 131.863281 776.46875 131.820312 777.523438 131.492188 C 781.71875 130.203125 787.421875 126.828125 794.835938 121.261719 C 799.402344 117.832031 806.667969 111.894531 809.023438 109.65625 C 809.738281 108.972656 810.628906 108.175781 811.011719 107.875 C 811.382812 107.574219 812.90625 106.226562 814.371094 104.871094 C 817.359375 102.128906 819.402344 100.398438 824.0625 96.65625 C 834.273438 88.453125 839.6875 85.09375 843.953125 84.269531 C 846.542969 83.777344 848.050781 84.269531 848.378906 85.710938 C 848.679688 87.066406 847.160156 89.742188 843.816406 93.707031 C 843.265625 94.363281 835.824219 103.058594 827.285156 113.042969 C 812.753906 129.996094 811.765625 131.191406 812.136719 131.230469 C 812.34375 131.246094 815.988281 130.984375 820.238281 130.65625 L 827.957031 130.039062 L 831.546875 126.554688 C 842.964844 115.472656 851.765625 107.449219 859.878906 100.726562 C 872.328125 90.425781 880.949219 84.859375 885.335938 84.28125 C 886.335938 84.144531 887.488281 84.421875 887.84375 84.859375 C 888.269531 85.40625 888.214844 86.394531 887.707031 87.355469 C 886.898438 88.878906 885.253906 90.660156 878.589844 97.3125 C 868.996094 106.871094 866.417969 110.027344 864.882812 114.046875 C 863.992188 116.390625 863.925781 116.804688 863.9375 119.667969 C 863.9375 122.015625 863.980469 122.414062 864.292969 123.59375 C 865.363281 127.582031 867.859375 130.367188 871.367188 131.492188 C 872.820312 131.972656 875.164062 132.082031 876.6875 131.738281 C 879.8125 131.054688 884.566406 128.542969 890.378906 124.511719 C 895.917969 120.65625 905.347656 113.210938 908.898438 109.863281 C 909.667969 109.148438 910.777344 108.160156 911.351562 107.683594 C 912.230469 106.957031 912.40625 106.859375 912.324219 107.132812 C 912.285156 107.3125 912.078125 108.230469 911.875 109.175781 C 911.515625 110.78125 911.488281 111.109375 911.503906 114.183594 C 911.503906 117.777344 911.695312 119.410156 912.449219 122 C 913.683594 126.238281 916.09375 129.351562 919.304688 130.847656 C 921.179688 131.726562 921.976562 131.875 924.855469 131.875 C 927.828125 131.875 929.40625 131.617188 932.324219 130.65625 C 938.398438 128.640625 945.085938 124.277344 951.421875 118.175781 C 952.105469 117.503906 952.679688 117.007812 952.679688 117.078125 C 952.679688 117.144531 952.515625 117.914062 952.324219 118.777344 C 951.859375 120.875 951.734375 124.128906 952.050781 125.636719 C 952.707031 128.722656 954.683594 130.75 957.890625 131.628906 C 959.179688 131.984375 963.375 131.972656 965.019531 131.617188 C 970.078125 130.519531 974.738281 127.980469 982.769531 121.945312 C 984.605469 120.574219 985.332031 120 990.71875 115.761719 C 995.574219 111.949219 998.589844 109.230469 999.492188 107.859375 C 1000.355469 106.558594 1000.054688 105.75 998.726562 105.75 C 997.863281 105.75 996.859375 106.421875 993.53125 109.257812 C 988.554688 113.496094 981.753906 118.820312 977.285156 121.960938 C 971.515625 126.035156 966.71875 128.503906 964.128906 128.75 C 963.125 128.84375 961.867188 128.597656 961.386719 128.226562 C 960.21875 127.296875 960.300781 125.195312 961.605469 122.578125 C 962.921875 119.945312 963.988281 118.558594 980.492188 98.367188 C 987.894531 89.289062 993.941406 81.839844 993.914062 81.828125 C 993.898438 81.8125 990.433594 81.953125 986.222656 82.15625 L 978.574219 82.527344 L 978.257812 82.855469 C 978.082031 83.035156 976.203125 85.175781 974.066406 87.617188 C 971.941406 90.042969 970.160156 92.019531 970.132812 91.976562 C 970.105469 91.949219 970.132812 91.691406 970.214844 91.402344 C 970.664062 89.742188 970.472656 87.671875 969.734375 86.160156 C 969.324219 85.324219 968.117188 83.96875 967.265625 83.390625 C 965.019531 81.839844 962.015625 81.058594 958.234375 81.058594 C 947.210938 81.058594 933.039062 86.792969 919.78125 96.640625 C 916.191406 99.300781 911.847656 102.921875 909.023438 105.609375 C 908.351562 106.253906 907.417969 107.09375 906.964844 107.460938 C 906.515625 107.832031 905.15625 109.011719 903.949219 110.070312 C 901.429688 112.289062 895.917969 116.734375 892.710938 119.132812 C 885.527344 124.523438 880.179688 127.734375 876.835938 128.652344 C 875.65625 128.984375 874.261719 129.011719 873.4375 128.722656 C 871.574219 128.0625 871.132812 125.992188 872.328125 123.511719 C 873.765625 120.507812 875.601562 118.285156 884.664062 108.519531 C 893.082031 99.464844 896.492188 93.417969 895.945312 88.589844 C 895.425781 84.089844 892.492188 81.335938 887.996094 81.101562 C 880.8125 80.730469 870.601562 87.054688 850.832031 104.089844 C 849.214844 105.488281 847.980469 106.503906 848.09375 106.339844 C 852.3125 100.261719 853.875 97.285156 854.835938 93.542969 C 855.355469 91.496094 855.492188 88.796875 855.164062 87.230469 C 854.507812 84.105469 852.148438 81.785156 848.941406 81.128906 C 847.53125 80.839844 845.105469 80.867188 843.457031 81.183594 C 837.234375 82.390625 831.203125 86.410156 815.46875 99.78125 C 813.246094 101.660156 810.710938 103.882812 809.847656 104.71875 C 808.96875 105.542969 807.859375 106.515625 807.367188 106.871094 C 806.886719 107.214844 805.597656 108.328125 804.5 109.328125 C 801.964844 111.644531 800.113281 113.195312 796.34375 116.117188 C 788.328125 122.359375 782.570312 126.210938 778.800781 127.859375 C 774.632812 129.667969 771.796875 129.148438 771.398438 126.5 C 771.179688 124.976562 772.523438 122.398438 775.796875 118.09375 C 776.566406 117.078125 783.433594 108.558594 791.054688 99.179688 C 798.675781 89.78125 804.914062 82.0625 804.914062 81.992188 C 804.914062 81.9375 804.433594 81.925781 803.855469 81.964844 C 802.433594 82.0625 790.644531 82.570312 789.890625 82.570312 L 789.3125 82.570312 L 786.929688 85.613281 C 774.894531 101.058594 763.613281 112.785156 753.441406 120.425781 C 746.105469 125.9375 739.554688 128.941406 734.960938 128.925781 C 733.140625 128.914062 732.140625 128.367188 731.496094 127.0625 C 731.191406 126.457031 731.152344 126.210938 731.21875 125.71875 C 731.441406 124.265625 733.566406 120.726562 736.8125 116.433594 C 739.636719 112.675781 741.859375 109.929688 753.496094 95.761719 C 759.648438 88.261719 764.707031 82.074219 764.722656 82.007812 C 764.761719 81.925781 764.433594 81.898438 763.898438 81.953125 C 763.433594 81.992188 759.675781 82.15625 755.566406 82.308594 L 748.09375 82.609375 L 745.148438 85.023438 C 734.234375 93.9375 726.339844 100.769531 721.554688 105.417969 C 717.566406 109.285156 710.386719 114.417969 704.214844 117.804688 C 695.648438 122.507812 686.671875 124.632812 676.566406 124.347656 C 666.765625 124.074219 655.363281 122.34375 643.4375 119.3125 C 639.722656 118.378906 635.746094 117.269531 635.582031 117.132812 C 635.527344 117.089844 635.964844 116.75 636.542969 116.378906 C 641.3125 113.402344 647.328125 108.929688 652.140625 104.816406 C 662.929688 95.570312 673.71875 82.871094 683.464844 67.949219 L 685.175781 65.328125 L 686.546875 64.875 C 694.25 62.367188 704.464844 58.441406 712.179688 55.027344 C 716.003906 53.328125 723.652344 49.542969 726.917969 47.71875 C 740.652344 40.0625 750.726562 31.945312 755.457031 24.6875 C 757.675781 21.285156 758.773438 18.226562 758.949219 14.949219 C 759.089844 12.109375 758.167969 9.972656 756.046875 8.214844 C 752.097656 4.964844 745.519531 4.636719 737.195312 7.296875 C 730.34375 9.476562 721.527344 14.101562 710.371094 21.355469 L 707.3125 23.34375 L 706.984375 23.082031 C 706.808594 22.945312 705.820312 22.152344 704.792969 21.328125 C 691.289062 10.480469 674.664062 3.703125 656.664062 1.714844 C 655.609375 1.605469 653.976562 1.441406 653.03125 1.359375 C 651.347656 1.21875 641.695312 1.082031 640.078125 1.179688 Z M 647.835938 3.839844 C 656.144531 4.140625 663.011719 5.144531 670.234375 7.132812 C 682.421875 10.480469 693.375 16.183594 702.886719 24.140625 L 704.558594 25.539062 L 702.679688 27.046875 C 695.773438 32.628906 688.453125 39.71875 681.542969 47.523438 C 678.488281 50.980469 672.402344 58.359375 670.507812 60.925781 C 670.25 61.28125 670.125 61.308594 668.042969 61.570312 C 657.679688 62.871094 649.03125 63.324219 641.105469 62.957031 C 627.414062 62.308594 616.71875 59.980469 607.796875 55.671875 C 603.285156 53.492188 600.4375 51.585938 597.667969 48.898438 C 594.417969 45.753906 592.664062 42.722656 591.800781 38.789062 C 591.429688 37.058594 591.472656 33.355469 591.867188 31.300781 C 593.171875 24.742188 597.035156 19.3125 603.753906 14.605469 C 613.402344 7.84375 626.398438 4.140625 641.722656 3.800781 C 642.558594 3.773438 643.449219 3.746094 643.710938 3.730469 C 643.972656 3.71875 645.835938 3.773438 647.835938 3.839844 Z M 748.191406 8.777344 C 752.042969 9.148438 754.234375 10.628906 754.960938 13.359375 C 755.207031 14.265625 755.207031 16.554688 754.960938 17.691406 C 753.839844 22.960938 749.246094 28.554688 741.089844 34.589844 C 729.507812 43.148438 713.539062 50.570312 693.429688 56.699219 C 691.5625 57.277344 689.972656 57.742188 689.90625 57.742188 C 689.714844 57.742188 691.8125 54.3125 694.359375 50.472656 C 698.652344 44 703.078125 38.390625 709.546875 31.230469 L 710.054688 30.65625 L 711.097656 31.75 C 711.660156 32.355469 712.90625 33.742188 713.867188 34.839844 C 717.992188 39.542969 718.679688 40.1875 719.515625 40.1875 C 720.5 40.1875 720.652344 38.898438 719.84375 37.335938 C 719.007812 35.703125 716.25 32.246094 713.441406 29.253906 L 712.316406 28.074219 L 713.347656 27.117188 C 720.007812 20.875 727.339844 15.648438 734.113281 12.34375 C 738.964844 9.972656 742.226562 8.996094 746.449219 8.667969 C 746.601562 8.65625 747.382812 8.710938 748.191406 8.777344 Z M 961.867188 84.421875 C 963.921875 85.050781 965.703125 86.492188 966.195312 87.945312 C 966.511719 88.835938 966.5 90.398438 966.183594 91.964844 C 965.128906 97.148438 960.753906 104.15625 954.738281 110.34375 C 949.363281 115.855469 943.621094 120.710938 938.988281 123.621094 C 936.792969 124.992188 932.847656 126.964844 931.160156 127.515625 C 928.570312 128.367188 926.117188 128.613281 924.636719 128.171875 C 923.128906 127.734375 921.921875 126.457031 921.496094 124.882812 C 921.003906 123.085938 921.429688 120.027344 922.605469 116.71875 C 923.25 114.925781 925.566406 110.289062 926.84375 108.285156 C 932.695312 99 940.949219 91.042969 949.074219 86.875 C 951.625 85.574219 954.683594 84.558594 957.082031 84.214844 C 958.34375 84.035156 960.972656 84.160156 961.867188 84.421875 Z M 585.246094 113.632812 C 588.976562 113.757812 594.238281 114.484375 599.230469 115.554688 C 604.453125 116.679688 618.421875 120.355469 618.488281 120.628906 C 618.53125 120.808594 614.074219 123.070312 611.839844 123.988281 C 605.246094 126.707031 598.832031 128.253906 591.964844 128.804688 C 589.359375 129.011719 583.261719 128.886719 581.066406 128.585938 C 575.761719 127.859375 571.238281 126.320312 568.660156 124.375 C 566.921875 123.042969 566.195312 121.726562 566.289062 120.039062 C 566.386719 118.242188 567.496094 116.832031 569.664062 115.71875 C 572.238281 114.390625 575.089844 113.773438 579.421875 113.578125 C 580.585938 113.523438 581.917969 113.496094 582.371094 113.523438 C 582.820312 113.539062 584.125 113.59375 585.246094 113.632812 Z M 585.246094 113.632812 "/>
<path id="luna" style=" stroke:none;fill-rule:nonzero;fill-opacity:1;" d="M 288.75 4.375 C 268.109375 11.644531 250.34375 20.449219 233.441406 31.75 C 222.132812 39.324219 208.710938 49.652344 195.703125 60.789062 L 193.824219 62.40625 L 192.90625 61.214844 C 189.480469 56.671875 185.121094 52.296875 180.734375 49.007812 C 175.925781 45.398438 170.152344 42.410156 164.21875 40.449219 C 151.730469 36.347656 137.28125 36.910156 127.34375 41.902344 C 122.519531 44.328125 118.394531 47.8125 115.871094 51.613281 C 110.855469 59.15625 110.578125 69.691406 115.128906 79.742188 C 118.804688 87.835938 127.152344 96.585938 138.007812 103.691406 C 139.214844 104.484375 140.214844 105.1875 140.214844 105.242188 C 140.230469 105.296875 138.980469 106.171875 137.445312 107.175781 C 114.183594 122.46875 87.289062 129.929688 58.492188 129.066406 C 43.699219 128.613281 32.527344 126.265625 23.234375 121.644531 C 13.871094 117.007812 8.484375 111 6.828125 103.375 C 6.566406 102.167969 6.523438 101.566406 6.523438 98.957031 C 6.523438 96.203125 6.550781 95.789062 6.894531 94.214844 C 8.417969 87.039062 12.691406 81.046875 20.289062 75.410156 C 31.417969 67.152344 45.714844 62.585938 61.753906 62.144531 C 67.824219 61.980469 72.71875 62.269531 77.175781 63.039062 C 86.742188 64.683594 94.007812 68.550781 97.558594 73.898438 C 100.492188 78.316406 100.96875 84.160156 98.832031 89.605469 C 96.832031 94.71875 92.046875 99.371094 85.191406 102.867188 C 79.121094 105.96875 71.675781 107.847656 62.847656 108.503906 C 59.972656 108.710938 53.542969 108.710938 50.171875 108.503906 C 47.976562 108.367188 47.386719 108.367188 46.894531 108.519531 C 45.371094 108.984375 45.894531 110.097656 47.867188 110.632812 C 51.0625 111.480469 60.464844 111.605469 67.03125 110.878906 C 69.730469 110.589844 73.570312 109.929688 75.816406 109.382812 C 86.976562 106.652344 96.078125 101.015625 100.792969 93.9375 C 104.960938 87.65625 106.015625 79.167969 103.410156 72.84375 C 99.476562 63.339844 86.78125 56.332031 70.390625 54.589844 C 66.179688 54.148438 58.394531 54.011719 54.28125 54.3125 C 40.425781 55.316406 28.71875 59.058594 18.382812 65.792969 C 8.210938 72.433594 2.332031 80.085938 0.464844 89.152344 C 0.0976562 90.921875 0.0820312 91.183594 0.0820312 94.84375 C 0.0820312 99.027344 0.164062 99.769531 0.972656 102.855469 C 4.222656 115.144531 16.066406 124.375 34.476562 128.941406 C 42.699219 130.984375 51.910156 131.945312 63.109375 131.945312 C 75.445312 131.945312 86.386719 130.683594 97.558594 127.96875 C 112.621094 124.320312 127.933594 117.558594 141.65625 108.53125 L 143.695312 107.1875 L 146.027344 108.339844 C 158.445312 114.429688 170.976562 118.121094 183.820312 119.476562 C 187.65625 119.875 187.425781 119.835938 187.191406 120.191406 C 186.617188 121.125 181.203125 131.835938 181.269531 131.917969 C 181.378906 132.015625 198.992188 130.191406 199.378906 130.039062 C 199.527344 129.96875 200.871094 127.980469 202.460938 125.429688 C 204.011719 122.960938 205.328125 120.917969 205.410156 120.902344 C 205.476562 120.875 206.628906 120.765625 207.945312 120.644531 C 216.59375 119.847656 223.570312 117.941406 230.632812 114.457031 C 235.414062 112.097656 238.226562 109.890625 238.9375 107.902344 C 239.0625 107.53125 239.417969 107.132812 240.15625 106.53125 C 241.746094 105.242188 244.859375 102.511719 248 99.699219 C 253.742188 94.527344 264.035156 85.847656 264.214844 86.023438 C 264.257812 86.050781 264.378906 87.285156 264.503906 88.742188 C 265.230469 97.382812 263.503906 106.378906 259.734375 113.566406 C 256.25 120.175781 250.988281 125.882812 246.601562 127.777344 C 243.597656 129.078125 240.210938 129.09375 239.117188 127.789062 C 238.816406 127.417969 238.773438 127.296875 238.855469 126.761719 C 238.964844 125.980469 239.363281 125.101562 240.324219 123.441406 C 241.28125 121.753906 241.527344 121.125 241.527344 120.273438 C 241.527344 118.875 240.417969 117.652344 238.621094 117.117188 C 237.8125 116.871094 237.429688 116.832031 236.210938 116.886719 C 234.015625 116.996094 232.414062 117.707031 230.960938 119.21875 C 230.054688 120.164062 229.601562 121.164062 229.507812 122.398438 C 229.21875 126.390625 232.507812 129.792969 238.035156 131.191406 C 240.28125 131.765625 241.417969 131.875 245.023438 131.875 C 247.695312 131.875 248.78125 131.820312 249.929688 131.628906 C 259.035156 130.09375 266.601562 125.898438 280.183594 114.8125 C 284.722656 111.125 287.628906 108.449219 288.023438 107.613281 C 288.09375 107.449219 288.574219 107.011719 289.066406 106.625 C 289.574219 106.242188 291.246094 104.828125 292.796875 103.484375 C 297.304688 99.5625 303.664062 94.269531 304.296875 93.882812 C 304.40625 93.816406 303.898438 94.488281 303.171875 95.367188 C 298.839844 100.578125 297.660156 102.074219 295.441406 105.0625 C 290.394531 111.867188 287.722656 116.953125 287.492188 120.191406 C 287.339844 122.371094 287.914062 124.921875 288.972656 126.679688 C 289.585938 127.707031 291.136719 129.285156 292.246094 129.996094 C 293.234375 130.640625 294.769531 131.273438 296.195312 131.628906 C 296.894531 131.808594 297.730469 131.863281 299.648438 131.875 C 301.980469 131.875 302.308594 131.847656 303.691406 131.492188 C 307.503906 130.519531 311.4375 128.503906 316.851562 124.703125 C 322.980469 120.410156 332.65625 112.703125 336.316406 109.175781 C 340.238281 105.433594 344.171875 101.960938 348.515625 98.410156 C 356.933594 91.523438 362.292969 87.726562 366.335938 85.777344 C 368.871094 84.542969 370.203125 84.171875 372.09375 84.160156 C 373.808594 84.144531 374.316406 84.324219 374.765625 85.078125 C 375.65625 86.519531 374.398438 88.851562 369.625 94.570312 C 368.007812 96.515625 339.8125 129.40625 338.675781 130.667969 C 338.523438 130.847656 338.429688 131.011719 338.46875 131.054688 C 338.511719 131.09375 342.171875 130.847656 346.597656 130.503906 L 354.65625 129.886719 L 357.140625 127.460938 C 368.214844 116.609375 377.824219 108.382812 386.019531 102.691406 L 387.351562 101.769531 L 386.472656 103.757812 C 384.9375 107.242188 384.527344 109.273438 384.964844 111.25 C 385.746094 114.773438 388.914062 116.609375 394.230469 116.609375 C 398.726562 116.625 402.703125 115.117188 408.554688 111.179688 C 409.777344 110.355469 410.652344 109.617188 411.957031 108.3125 C 412.984375 107.269531 413.640625 106.679688 413.574219 106.886719 C 413.492188 107.078125 413.273438 107.996094 413.066406 108.929688 C 412.765625 110.328125 412.683594 111.070312 412.628906 113.265625 C 412.558594 116.269531 412.722656 118.242188 413.230469 120.5625 C 414.546875 126.457031 417.753906 130.300781 422.46875 131.617188 C 423.882812 132.015625 428.046875 131.984375 430.144531 131.5625 C 434.203125 130.738281 438.78125 128.707031 443.238281 125.730469 C 446.183594 123.769531 449.144531 121.382812 452.269531 118.460938 C 453.613281 117.199219 453.886719 116.996094 453.804688 117.308594 C 453.121094 120.054688 452.847656 122.617188 453.039062 124.359375 C 453.601562 129.449219 456.671875 131.929688 462.386719 131.945312 C 464.578125 131.945312 466.730469 131.589844 468.964844 130.835938 C 474.175781 129.105469 478.957031 125.980469 491.078125 116.390625 C 497.039062 111.6875 499.808594 109.191406 500.726562 107.75 C 501.507812 106.503906 501.191406 105.75 499.902344 105.75 C 499.027344 105.75 498.039062 106.421875 494.296875 109.589844 C 483.085938 119.066406 473.269531 125.964844 468.183594 127.953125 C 465.828125 128.871094 464.140625 129.011719 462.839844 128.378906 C 461.988281 127.96875 461.742188 127.433594 461.753906 126.117188 C 461.796875 123.785156 463.085938 121.371094 466.992188 116.378906 C 467.648438 115.542969 474.203125 107.476562 481.578125 98.453125 C 488.953125 89.414062 494.984375 81.964844 494.984375 81.898438 C 494.984375 81.839844 494.722656 81.800781 494.40625 81.828125 C 494.078125 81.855469 490.953125 82.007812 487.445312 82.15625 C 483.933594 82.308594 480.753906 82.472656 480.355469 82.515625 L 479.644531 82.582031 L 475.4375 87.382812 C 473.132812 90.015625 471.214844 92.167969 471.1875 92.167969 C 471.171875 92.167969 471.214844 91.964844 471.28125 91.71875 C 471.554688 90.785156 471.667969 89.359375 471.527344 88.328125 C 471.023438 84.515625 467.527344 81.867188 462.085938 81.195312 C 459.632812 80.894531 455.519531 81.128906 452.230469 81.757812 C 441.25 83.84375 428.527344 90.332031 416.988281 99.699219 C 414.164062 101.988281 410.871094 104.898438 409.515625 106.296875 C 408.5 107.351562 405.472656 109.710938 403.648438 110.863281 C 400.59375 112.8125 397.027344 113.976562 394.09375 113.976562 C 392.09375 113.976562 390.378906 113.25 389.40625 111.988281 C 388.707031 111.054688 388.558594 110.425781 388.652344 108.585938 C 388.84375 104.746094 390.613281 101.714844 394.300781 98.875 C 395.425781 98.011719 396.054688 97.613281 400.316406 95.117188 C 407.5 90.921875 411.050781 88.453125 413.011719 86.328125 C 414 85.230469 414.285156 84.613281 414.21875 83.734375 C 414.121094 82.636719 413.546875 82.046875 411.886719 81.363281 C 410.339844 80.730469 406.734375 80.785156 404.019531 81.472656 C 398.933594 82.773438 395.480469 86.246094 391.421875 94.117188 L 390.3125 96.269531 L 387.378906 98.3125 C 383.566406 100.949219 376.082031 106.367188 372.585938 109.027344 C 372.21875 109.3125 372.367188 109.039062 373.300781 107.777344 C 379.398438 99.519531 381.648438 94.789062 381.976562 89.5625 C 382.140625 86.835938 381.550781 85.214844 379.785156 83.460938 C 377.988281 81.691406 376.453125 81.074219 373.535156 80.964844 C 367.542969 80.746094 361.921875 83.609375 350.640625 92.648438 C 345.734375 96.585938 338.113281 103.101562 335.972656 105.1875 C 335.191406 105.953125 334.246094 106.804688 333.890625 107.078125 C 333.519531 107.339844 332.109375 108.546875 330.722656 109.753906 C 326.367188 113.59375 318.484375 119.78125 313.945312 122.921875 C 309.011719 126.347656 304.941406 128.339844 301.707031 128.925781 C 300.457031 129.148438 298.855469 129.132812 298.277344 128.886719 C 296.796875 128.242188 295.839844 126.898438 296.003906 125.691406 C 296.277344 123.660156 298.386719 120.136719 302.773438 114.335938 C 304.40625 112.179688 304.5 112.058594 325.308594 86.09375 L 340.238281 67.480469 L 366.390625 67.480469 L 367.351562 66.136719 L 368.3125 64.808594 L 355.382812 64.738281 L 342.472656 64.667969 L 349.65625 55.769531 C 353.589844 50.886719 356.808594 46.839844 356.78125 46.785156 C 356.753906 46.730469 353.355469 46.894531 349.230469 47.128906 C 342.84375 47.496094 341.691406 47.59375 341.554688 47.785156 C 341.457031 47.910156 338.375 51.761719 334.671875 56.359375 L 327.957031 64.722656 L 322.402344 64.738281 L 316.851562 64.75 L 314.851562 67.414062 L 320.195312 67.453125 C 323.144531 67.46875 325.554688 67.523438 325.554688 67.550781 C 325.554688 67.589844 323.144531 70.445312 320.183594 73.898438 C 312.164062 83.269531 308.546875 86.75 297.59375 95.597656 C 291.835938 100.261719 287.941406 103.621094 286.078125 105.542969 C 285.585938 106.050781 284.570312 106.957031 283.816406 107.574219 C 283.0625 108.175781 280.816406 110.082031 278.8125 111.78125 C 275.015625 115.035156 270.410156 118.847656 270.027344 119.066406 C 269.863281 119.148438 269.972656 118.792969 270.382812 117.84375 C 271.382812 115.570312 271.863281 113.566406 272.027344 110.960938 C 272.207031 108.285156 271.699219 105.417969 270.082031 99.78125 C 268.328125 93.636719 267.847656 91.332031 267.847656 88.835938 C 267.847656 87.710938 267.914062 87.164062 268.136719 86.519531 C 268.792969 84.542969 269.847656 83.679688 272.4375 82.925781 C 275.097656 82.15625 277.210938 80.8125 277.855469 79.496094 C 278.414062 78.304688 278.128906 76.535156 277.222656 75.683594 C 275.960938 74.503906 273 74.203125 270.835938 75.023438 C 268.558594 75.890625 266.339844 78.042969 264.558594 81.113281 C 264.117188 81.855469 263.460938 82.457031 258.800781 86.382812 C 245.503906 97.574219 238.238281 104.007812 235.757812 106.777344 C 234.304688 108.410156 231.605469 110.316406 228.082031 112.179688 C 223.820312 114.429688 218.9375 116.046875 213.742188 116.925781 C 211.6875 117.28125 207.285156 117.75 207.175781 117.640625 C 207.109375 117.570312 210.605469 111.152344 213.402344 106.226562 C 231.109375 74.996094 248.671875 50.019531 268.835938 27.429688 C 274.660156 20.902344 282.183594 13.058594 288.050781 7.40625 C 291.589844 3.992188 292.464844 3.101562 292.21875 3.167969 C 292.191406 3.167969 290.644531 3.71875 288.75 4.375 Z M 276.878906 12.398438 C 270.492188 17.871094 264.734375 23.027344 258.320312 29.0625 C 254.441406 32.710938 244.09375 43.027344 240.691406 46.632812 C 224.65625 63.683594 211.550781 80.539062 200.390625 98.4375 C 199.324219 100.164062 198.417969 101.59375 198.378906 101.632812 C 198.335938 101.675781 198.347656 101.523438 198.40625 101.289062 C 198.625 100.371094 199.308594 96.078125 199.542969 94.160156 C 199.871094 91.320312 199.871094 84.226562 199.542969 81.222656 C 199.007812 76.464844 198.074219 72.171875 196.691406 68.167969 C 196.238281 66.851562 195.828125 65.644531 195.800781 65.492188 C 195.746094 65.273438 196.417969 64.613281 199.269531 62.117188 C 220.28125 43.753906 238.703125 30.53125 256.058594 21.382812 C 261.679688 18.421875 267.792969 15.648438 273.125 13.675781 C 276.621094 12.371094 277.101562 12.207031 276.878906 12.398438 Z M 157.636719 43.628906 C 170.988281 44.863281 181.96875 51.585938 190.289062 63.574219 L 191.058594 64.667969 L 187.738281 67.507812 C 185.929688 69.058594 182.777344 71.773438 180.734375 73.515625 C 167.65625 84.761719 155.128906 94.898438 146.328125 101.34375 L 143.726562 103.25 L 143.246094 102.964844 C 142.203125 102.359375 138.308594 99.753906 137.078125 98.847656 C 126.726562 91.183594 121.65625 83.460938 120.765625 73.996094 C 119.996094 65.738281 122.683594 58.539062 128.714844 52.765625 C 135.457031 46.304688 143.984375 43.164062 154.074219 43.4375 C 155.238281 43.464844 156.84375 43.546875 157.636719 43.628906 Z M 193.414062 69.222656 C 194.621094 72.597656 195.582031 77.179688 196.046875 81.746094 C 196.28125 84.050781 196.28125 92.292969 196.046875 94.296875 C 195.210938 101.46875 193.304688 107.832031 189.851562 115.035156 L 188.90625 116.996094 L 188.179688 116.925781 C 181.804688 116.296875 178.84375 115.882812 174.703125 115.074219 C 164.890625 113.140625 156.828125 110.261719 148.507812 105.71875 L 146.988281 104.882812 L 150.566406 102.195312 C 158.542969 96.1875 167.34375 89.027344 182.105469 76.535156 C 190.894531 69.101562 192.648438 67.632812 192.742188 67.617188 C 192.796875 67.617188 193.097656 68.34375 193.414062 69.222656 Z M 463.179688 84.476562 C 465.003906 85.050781 466.472656 86.191406 467.15625 87.5625 C 467.511719 88.273438 467.566406 88.519531 467.566406 89.5625 C 467.566406 94.117188 464.566406 100.191406 458.945312 106.96875 C 455.738281 110.824219 448.773438 117.367188 444.332031 120.699219 C 438.917969 124.746094 433.832031 127.378906 429.871094 128.1875 C 428.214844 128.515625 426.210938 128.421875 425.199219 127.941406 C 424.210938 127.488281 423.359375 126.636719 422.910156 125.648438 C 422.386719 124.550781 422.320312 122.332031 422.730469 120.3125 C 424.304688 112.6875 431.050781 102.25 439.328125 94.664062 C 445.773438 88.753906 452.558594 84.996094 458.179688 84.226562 C 459.660156 84.023438 462.125 84.144531 463.179688 84.476562 Z M 463.179688 84.476562 "/>
</g>
</svg>
