<?xml version="1.0" standalone="no"?>
<!DOCTYPE svg PUBLIC "-//W3C//DTD SVG 20010904//EN"
 "http://www.w3.org/TR/2001/REC-SVG-20010904/DTD/svg10.dtd">
<svg version="1.0" xmlns="http://www.w3.org/2000/svg"
 width="7295.000000pt" height="962.000000pt" viewBox="0 0 7295.000000 962.000000"
 preserveAspectRatio="xMidYMid meet">
<metadata>
Created by potrace 1.15, written by Peter Selinger 2001-2017
</metadata>
<g transform="translate(0.000000,962.000000) scale(0.100000,-0.100000)"
fill="#000000" stroke="none">
<path d="M46695 9534 c-596 -35 -992 -92 -1425 -205 -751 -194 -1408 -547
-1860 -999 -150 -150 -248 -270 -345 -425 -326 -518 -397 -1211 -179 -1751 84
-209 210 -397 394 -587 571 -591 1494 -969 2650 -1086 540 -55 1227 -53 1935
4 198 17 536 51 592 61 32 6 25 -6 -207 -350 -597 -887 -1137 -1639 -1446
-2011 -334 -404 -662 -721 -929 -900 -54 -36 -108 -68 -119 -71 -12 -2 -167
27 -346 65 -1148 246 -1797 346 -2465 381 -739 39 -1314 -50 -1669 -258 -111
-64 -242 -195 -285 -282 -77 -160 -79 -323 -5 -478 146 -305 662 -531 1364
-596 661 -62 1348 1 2020 184 323 88 815 263 1149 409 52 22 100 41 107 41 8
0 123 -31 256 -69 1141 -326 1951 -509 2573 -582 227 -26 623 -36 802 -20 888
80 1909 527 3013 1316 284 204 471 364 592 508 26 32 85 90 130 129 45 38 154
134 242 212 268 237 674 576 691 576 3 0 -52 -69 -123 -152 -684 -812 -1056
-1411 -1079 -1742 -11 -161 32 -343 113 -473 51 -82 173 -201 258 -252 142
-85 331 -131 537 -131 149 0 261 20 428 76 427 142 1002 514 1585 1024 71 63
127 106 123 97 -4 -10 -16 -68 -28 -130 -18 -93 -21 -134 -16 -247 11 -266 84
-446 247 -610 94 -94 172 -142 300 -182 65 -20 95 -23 220 -23 128 1 155 4
232 28 306 94 722 340 1263 746 333 250 863 683 1035 846 52 50 117 108 145
130 27 22 138 120 245 219 218 200 367 326 707 599 745 598 1140 843 1451 903
189 36 299 0 323 -105 22 -99 -89 -294 -333 -583 -40 -48 -583 -682 -1206
-1410 -1060 -1236 -1132 -1323 -1105 -1326 15 -1 281 18 591 42 l563 45 262
254 c833 808 1475 1393 2067 1883 908 751 1537 1157 1857 1199 73 10 157 -10
183 -42 31 -40 27 -112 -10 -182 -59 -111 -179 -241 -665 -726 -700 -697 -888
-927 -1000 -1220 -65 -171 -70 -201 -69 -410 0 -171 3 -200 26 -286 78 -291
260 -494 516 -576 106 -35 277 -43 388 -18 228 50 575 233 999 527 404 281
1092 824 1351 1068 56 52 137 124 179 159 64 53 77 60 71 40 -3 -13 -18 -80
-33 -149 -26 -117 -28 -141 -27 -365 0 -262 14 -381 69 -570 90 -309 266 -536
500 -645 137 -64 195 -75 405 -75 217 0 332 19 545 89 443 147 931 465 1393
910 50 49 92 85 92 80 0 -5 -12 -61 -26 -124 -34 -153 -43 -390 -20 -500 48
-225 192 -373 426 -437 94 -26 400 -25 520 1 369 80 709 265 1295 705 134 100
187 142 580 451 354 278 574 476 640 576 63 95 41 154 -56 154 -63 0 -136 -49
-379 -256 -363 -309 -859 -697 -1185 -926 -421 -297 -771 -477 -960 -495 -73
-7 -165 11 -200 38 -85 68 -79 221 16 412 96 192 174 293 1378 1765 540 662
981 1205 979 1206 -1 1 -254 -9 -561 -24 l-558 -27 -23 -24 c-13 -13 -150
-169 -306 -347 -155 -177 -285 -321 -287 -318 -2 2 0 21 6 42 33 121 19 272
-35 382 -30 61 -118 160 -180 202 -164 113 -383 170 -659 170 -804 0 -1838
-418 -2805 -1136 -262 -194 -579 -458 -785 -654 -49 -47 -117 -108 -150 -135
-33 -27 -132 -113 -220 -190 -184 -162 -586 -486 -820 -661 -524 -393 -914
-627 -1158 -694 -86 -24 -188 -26 -248 -5 -136 48 -168 199 -81 380 105 219
239 381 900 1093 614 660 863 1101 823 1453 -38 328 -252 529 -580 546 -524
27 -1269 -434 -2711 -1676 -118 -102 -208 -176 -200 -164 308 443 422 660 492
933 38 149 48 346 24 460 -48 228 -220 397 -454 445 -103 21 -280 19 -400 -4
-454 -88 -894 -381 -2042 -1356 -162 -137 -347 -299 -410 -360 -64 -60 -145
-131 -181 -157 -35 -25 -129 -106 -209 -179 -185 -169 -320 -282 -595 -495
-585 -455 -1005 -736 -1280 -856 -304 -132 -511 -94 -540 99 -16 111 82 299
321 613 56 74 557 695 1113 1379 556 685 1011 1248 1011 1253 0 4 -35 5 -77 2
-104 -7 -964 -44 -1019 -44 l-42 0 -174 -222 c-878 -1126 -1701 -1981 -2443
-2538 -535 -402 -1013 -621 -1348 -620 -133 1 -206 41 -253 136 -22 44 -25 62
-20 98 16 106 171 364 408 677 206 274 368 474 1217 1507 449 547 818 998 819
1003 3 6 -21 8 -60 4 -34 -3 -308 -15 -608 -26 l-545 -22 -215 -176 c-796
-650 -1372 -1148 -1721 -1487 -291 -282 -815 -656 -1265 -903 -625 -343 -1280
-498 -2017 -477 -715 20 -1547 146 -2417 367 -271 68 -561 149 -573 159 -4 3
28 28 70 55 348 217 787 543 1138 843 787 674 1574 1600 2285 2688 l125 191
100 33 c562 183 1307 469 1870 718 279 124 837 400 1075 533 1002 558 1737
1150 2082 1679 162 248 242 471 255 710 10 207 -57 363 -212 491 -288 237
-768 261 -1375 67 -500 -159 -1143 -496 -1957 -1025 l-223 -145 -24 19 c-13
10 -85 68 -160 128 -985 791 -2198 1285 -3511 1430 -77 8 -196 20 -265 26
-123 10 -827 20 -945 13z m566 -194 c606 -22 1107 -95 1634 -240 889 -244
1688 -660 2382 -1240 l122 -102 -137 -110 c-504 -407 -1038 -924 -1542 -1493
-223 -252 -667 -790 -805 -977 -19 -26 -28 -28 -180 -47 -756 -95 -1387 -128
-1965 -101 -999 47 -1779 217 -2430 531 -329 159 -537 298 -739 494 -237 229
-365 450 -428 737 -27 126 -24 396 5 546 95 478 377 874 867 1217 704 493
1652 763 2770 788 61 2 126 4 145 5 19 1 155 -3 301 -8z m7321 -360 c281 -27
441 -135 494 -334 18 -66 18 -233 0 -316 -82 -384 -417 -792 -1012 -1232 -845
-624 -2010 -1165 -3477 -1612 -136 -42 -252 -76 -257 -76 -14 0 139 250 325
530 313 472 636 881 1108 1403 l37 42 76 -80 c41 -44 132 -145 202 -225 301
-343 351 -390 412 -390 72 0 83 94 24 208 -61 119 -262 371 -467 589 l-82 86
75 70 c486 455 1021 836 1515 1077 354 173 592 244 900 268 11 1 68 -3 127 -8z
m15588 -5515 c150 -46 280 -151 316 -257 23 -65 22 -179 -1 -293 -77 -378
-396 -889 -835 -1340 -392 -402 -811 -756 -1149 -968 -160 -100 -448 -244
-571 -284 -189 -62 -368 -80 -476 -48 -110 32 -198 125 -229 240 -36 131 -5
354 81 595 47 131 216 469 309 615 427 677 1029 1257 1622 1561 186 95 409
169 584 194 92 13 284 4 349 -15z m-27475 -2130 c272 -9 656 -62 1020 -140
381 -82 1400 -350 1405 -370 3 -13 -322 -178 -485 -245 -481 -198 -949 -311
-1450 -351 -190 -15 -635 -6 -795 16 -387 53 -717 165 -905 307 -127 97 -180
193 -173 316 7 131 88 234 246 315 188 97 396 142 712 156 85 4 182 6 215 4
33 -1 128 -5 210 -8z"/>
<path d="M21065 9301 c-1506 -530 -2802 -1172 -4035 -1996 -825 -552 -1804
-1305 -2753 -2117 l-137 -118 -67 87 c-250 331 -568 650 -888 890 -351 263
-772 481 -1205 624 -911 299 -1965 258 -2690 -106 -352 -177 -653 -431 -837
-708 -366 -550 -386 -1318 -54 -2051 268 -590 877 -1228 1669 -1746 88 -58
161 -109 161 -113 1 -4 -90 -68 -202 -141 -1697 -1115 -3659 -1659 -5760
-1596 -1079 33 -1894 204 -2572 541 -683 338 -1076 776 -1197 1332 -19 88 -22
132 -22 322 0 201 2 231 27 346 111 523 423 960 977 1371 812 602 1855 935
3025 967 443 12 800 -9 1125 -65 698 -120 1228 -402 1487 -792 214 -322 249
-748 93 -1145 -146 -373 -495 -712 -995 -967 -443 -226 -986 -363 -1630 -411
-210 -15 -679 -15 -925 0 -160 10 -203 10 -239 -1 -111 -34 -73 -115 71 -154
233 -62 919 -71 1398 -18 197 21 477 69 641 109 814 199 1478 610 1822 1126
304 458 381 1077 191 1538 -287 693 -1213 1204 -2409 1331 -307 32 -875 42
-1175 20 -1011 -73 -1865 -346 -2619 -837 -742 -484 -1171 -1042 -1307 -1703
-27 -129 -28 -148 -28 -415 0 -305 6 -359 65 -584 237 -896 1101 -1569 2444
-1902 600 -149 1272 -219 2089 -219 900 0 1698 92 2513 290 1099 266 2216 759
3217 1417 l149 98 170 -84 c906 -444 1820 -713 2757 -812 280 -29 263 -26 246
-52 -42 -68 -437 -849 -432 -855 8 -7 1293 126 1321 137 11 5 109 150 225 336
113 180 209 329 215 330 5 2 89 10 185 19 631 58 1140 197 1655 451 349 172
554 333 606 478 9 27 35 56 89 100 116 94 343 293 572 498 419 377 1170 1010
1183 997 3 -2 12 -92 21 -198 53 -630 -73 -1286 -348 -1810 -254 -482 -638
-898 -958 -1036 -219 -95 -466 -96 -546 -1 -22 27 -25 36 -19 75 8 57 37 121
107 242 70 123 88 169 88 231 0 102 -81 191 -212 230 -59 18 -87 21 -176 17
-160 -8 -277 -60 -383 -170 -66 -69 -99 -142 -106 -232 -21 -291 219 -539 622
-641 164 -42 247 -50 510 -50 195 0 274 4 358 18 664 112 1216 418 2207 1226
331 269 543 464 572 525 5 12 40 44 76 72 37 28 159 131 272 229 329 286 793
672 839 700 8 5 -29 -44 -82 -108 -316 -380 -402 -489 -564 -707 -368 -496
-563 -867 -580 -1103 -11 -159 31 -345 108 -473 45 -75 158 -190 239 -242 72
-47 184 -93 288 -119 51 -13 112 -17 252 -18 170 0 194 2 295 28 278 71 565
218 960 495 447 313 1153 875 1420 1132 286 273 573 526 890 785 614 502 1005
779 1300 921 185 90 282 117 420 118 125 1 162 -12 195 -67 65 -105 -27 -275
-375 -692 -118 -142 -2175 -2540 -2258 -2632 -11 -13 -18 -25 -15 -28 3 -3
270 15 593 40 l588 45 181 177 c808 791 1509 1391 2107 1806 l97 67 -64 -145
c-112 -254 -142 -402 -110 -546 57 -257 288 -391 676 -391 328 -1 618 109
1045 396 89 60 153 114 248 209 75 76 123 119 118 104 -6 -14 -22 -81 -37
-149 -22 -102 -28 -156 -32 -316 -5 -219 7 -363 44 -532 96 -430 330 -710 674
-806 103 -29 407 -27 560 4 296 60 630 208 955 425 215 143 431 317 659 530
98 92 118 107 112 84 -50 -200 -70 -387 -56 -514 41 -371 265 -552 682 -553
160 0 317 26 480 81 380 126 729 354 1613 1053 435 343 637 525 704 630 57 91
34 146 -60 146 -64 0 -136 -49 -409 -280 -818 -691 -1534 -1194 -1905 -1339
-172 -67 -295 -77 -390 -31 -62 30 -80 69 -79 165 3 170 97 346 382 710 48 61
526 649 1064 1307 538 659 978 1202 978 1207 0 4 -19 7 -42 5 -24 -2 -252 -13
-508 -24 -256 -11 -488 -23 -517 -26 l-52 -5 -307 -350 c-168 -192 -308 -349
-310 -349 -1 0 2 15 7 33 20 68 28 172 18 247 -37 278 -292 471 -689 520 -179
22 -479 5 -719 -41 -801 -152 -1729 -625 -2571 -1308 -206 -167 -446 -379
-545 -481 -74 -77 -295 -249 -428 -333 -223 -142 -483 -227 -697 -227 -146 0
-271 53 -342 145 -51 68 -62 114 -55 248 14 280 143 501 412 708 82 63 128 92
439 274 524 306 783 486 926 641 72 80 93 125 88 189 -7 80 -49 123 -170 173
-113 46 -376 42 -574 -8 -371 -95 -623 -348 -919 -922 l-81 -157 -214 -149
c-278 -192 -824 -587 -1079 -781 -27 -21 -16 -1 52 91 445 602 609 947 633
1328 12 199 -31 317 -160 445 -131 129 -243 174 -456 182 -437 16 -847 -193
-1670 -852 -358 -287 -914 -762 -1070 -914 -57 -56 -126 -118 -152 -138 -27
-19 -130 -107 -231 -195 -318 -280 -893 -731 -1224 -960 -360 -250 -657 -395
-893 -438 -91 -16 -208 -15 -250 3 -108 47 -178 145 -166 233 20 148 174 405
494 828 119 157 126 166 1644 2059 l1089 1357 954 0 954 0 70 98 70 97 -943 5
-942 5 524 649 c287 356 522 651 520 655 -2 4 -250 -8 -551 -25 -466 -27 -550
-34 -560 -48 -7 -9 -232 -290 -502 -625 l-490 -610 -405 -1 -405 -1 -73 -97
-73 -97 390 -3 c215 -1 391 -5 391 -7 0 -3 -176 -211 -392 -463 -585 -683
-849 -937 -1648 -1582 -420 -340 -704 -585 -840 -725 -36 -37 -110 -103 -165
-148 -55 -44 -219 -183 -365 -307 -277 -237 -613 -515 -641 -531 -12 -6 -4 20
26 89 73 166 108 312 120 502 13 195 -24 404 -142 815 -128 448 -163 616 -163
798 0 82 5 122 21 169 48 144 125 207 314 262 194 56 348 154 395 250 41 87
20 216 -46 278 -92 86 -308 108 -466 48 -166 -63 -328 -220 -458 -444 -32 -54
-80 -98 -420 -384 -970 -816 -1500 -1285 -1681 -1487 -106 -119 -303 -258
-560 -394 -311 -164 -667 -282 -1046 -346 -150 -26 -471 -60 -479 -52 -5 5
250 473 454 832 1292 2277 2573 4098 4044 5745 425 476 974 1048 1402 1460
258 249 322 314 304 309 -2 0 -115 -40 -253 -88z m-866 -585 c-466 -399 -886
-775 -1354 -1215 -283 -266 -1038 -1018 -1286 -1281 -1170 -1243 -2126 -2472
-2940 -3777 -78 -126 -144 -230 -147 -233 -3 -3 -2 8 2 25 16 67 66 380 83
520 24 207 24 724 0 943 -39 347 -107 660 -208 952 -33 96 -63 184 -65 195 -4
16 45 64 253 246 1533 1339 2877 2303 4143 2970 410 216 856 418 1245 562 255
95 290 107 274 93z m-8699 -2277 c974 -90 1775 -580 2382 -1454 l56 -80 -242
-207 c-132 -113 -362 -311 -511 -438 -954 -820 -1868 -1559 -2510 -2029 l-190
-139 -35 21 c-76 44 -360 234 -450 300 -755 559 -1125 1122 -1190 1812 -56
602 140 1127 580 1548 492 471 1114 700 1850 680 85 -2 202 -8 260 -14z m2610
-1866 c88 -246 158 -580 192 -913 17 -168 17 -769 0 -915 -61 -523 -200 -987
-452 -1512 l-69 -143 -53 5 c-465 46 -681 76 -983 135 -716 141 -1304 351
-1911 682 l-111 61 261 196 c582 438 1224 960 2301 1871 641 542 769 649 776
650 4 0 26 -53 49 -117z m19680 -1112 c133 -42 240 -125 290 -225 26 -52 30
-70 30 -146 0 -332 -219 -775 -629 -1269 -234 -281 -742 -758 -1066 -1001
-395 -295 -766 -487 -1055 -546 -121 -24 -267 -17 -341 18 -72 33 -134 95
-167 167 -38 80 -43 242 -13 389 115 556 607 1317 1211 1870 470 431 965 705
1375 761 108 15 288 6 365 -18z"/>
</g>
</svg>
