
<svg id="svg" class="image" version="1.1" xmlns="http://www.w3.org/2000/svg" xmlns:xlink="http://www.w3.org/1999/xlink" width="400" height="158.09723679608254" viewBox="0, 0, 400,158.09723679608254">
<meta content="width=device-width, initial-scale=1" name="viewport" />
<style>
   


    @media only screen and (max-width: 992px) 
{
    #path0
    {
        fill:white;
    }
}
    #path0
    {
        fill:black;
    }
</style>
<g id="svgg"><path id="path0" d="M174.167 4.604 C 169.087 5.574,165.689 8.358,164.655 12.397 C 164.582 12.683,164.387 13.367,164.223 13.917 C 163.450 16.496,163.993 21.794,165.239 23.833 C 165.435 24.154,165.677 24.604,165.778 24.833 C 167.041 27.718,171.925 30.167,176.416 30.166 C 179.368 30.166,183.766 28.791,185.417 27.352 C 185.600 27.192,185.956 26.933,186.208 26.777 L 186.667 26.492 186.667 21.746 L 186.667 17.000 181.434 17.000 C 175.430 17.000,176.000 16.806,176.000 18.847 L 176.000 20.167 179.667 20.167 L 183.333 20.167 183.333 22.304 C 183.333 24.607,183.300 24.699,182.250 25.262 C 181.132 25.862,180.827 26.005,180.000 26.316 C 172.357 29.193,165.647 22.815,167.743 14.667 C 167.897 14.071,168.080 13.358,168.152 13.083 C 168.609 11.320,170.431 9.258,172.319 8.367 L 173.583 7.769 176.083 7.763 L 178.583 7.757 179.750 8.363 C 181.432 9.237,182.524 10.566,182.993 12.306 C 183.109 12.738,183.267 12.998,183.385 12.954 C 183.494 12.914,184.183 12.708,184.917 12.497 C 186.534 12.032,186.566 12.007,186.321 11.400 C 186.213 11.134,186.067 10.767,185.997 10.583 C 184.459 6.593,181.529 4.707,176.667 4.579 C 175.521 4.549,174.396 4.560,174.167 4.604 M148.333 4.897 C 148.104 5.019,147.692 5.234,147.417 5.374 C 146.687 5.747,143.347 7.494,142.667 7.859 C 141.905 8.267,140.747 8.941,139.563 9.667 C 137.643 10.842,137.406 10.984,136.822 11.310 C 136.495 11.493,136.130 11.760,136.010 11.904 C 135.890 12.049,135.735 12.167,135.665 12.167 C 135.544 12.167,133.507 13.470,133.333 13.659 C 133.287 13.709,133.130 13.825,132.983 13.917 C 132.002 14.530,130.833 15.403,130.833 15.524 C 130.833 15.602,130.740 15.667,130.625 15.667 C 130.510 15.667,130.211 15.836,129.959 16.042 C 129.708 16.248,129.153 16.679,128.726 17.000 C 124.332 20.303,112.500 31.228,112.500 31.982 C 112.500 32.083,112.432 32.167,112.350 32.167 C 112.172 32.167,107.612 37.126,105.920 39.160 C 105.579 39.569,105.208 39.981,105.095 40.077 C 104.929 40.217,103.268 42.173,102.000 43.721 C 101.862 43.889,101.600 44.192,101.416 44.394 C 101.233 44.596,100.604 45.340,100.019 46.047 C 98.740 47.594,99.005 47.617,98.057 45.875 C 97.621 45.073,97.205 44.342,97.132 44.250 C 96.804 43.836,95.833 42.288,95.833 42.179 C 95.833 42.112,95.646 41.882,95.417 41.667 C 95.188 41.451,95.000 41.214,95.000 41.139 C 95.000 41.064,94.856 40.833,94.681 40.626 C 91.799 37.228,91.652 37.070,90.083 35.727 C 88.793 34.621,86.608 33.000,86.409 33.000 C 86.339 33.000,86.036 32.813,85.735 32.583 C 85.435 32.354,85.129 32.167,85.055 32.167 C 84.982 32.167,84.546 31.983,84.086 31.759 C 82.169 30.826,81.422 30.558,79.613 30.155 C 74.868 29.098,69.141 29.810,66.180 31.824 C 65.944 31.985,65.337 32.390,64.833 32.725 C 57.555 37.549,54.947 49.620,58.847 60.433 C 59.114 61.176,59.333 61.833,59.333 61.893 C 59.333 61.953,59.521 62.390,59.750 62.865 C 59.979 63.340,60.167 63.792,60.167 63.868 C 60.167 63.944,60.354 64.304,60.583 64.667 C 60.813 65.030,61.000 65.397,61.000 65.484 C 61.000 65.748,63.304 69.446,64.120 70.490 C 66.733 73.838,66.906 74.035,69.558 76.690 C 70.461 77.594,71.273 78.333,71.362 78.333 C 71.909 78.333,69.302 80.871,66.333 83.228 C 65.554 83.847,64.804 84.444,64.667 84.555 C 64.529 84.667,63.892 85.129,63.250 85.584 C 62.608 86.038,61.984 86.505,61.863 86.621 C 61.742 86.738,61.578 86.833,61.499 86.833 C 61.419 86.833,60.853 87.177,60.239 87.597 C 59.626 88.016,59.003 88.404,58.854 88.458 C 58.705 88.512,58.283 88.752,57.917 88.991 C 57.550 89.230,56.987 89.555,56.667 89.712 C 56.346 89.869,55.971 90.063,55.833 90.142 C 55.264 90.471,52.467 91.727,51.000 92.312 C 40.028 96.692,25.997 97.074,16.917 93.239 C 15.330 92.569,12.935 91.300,12.250 90.766 C 6.070 85.949,3.691 81.844,3.402 75.500 C 2.991 66.470,6.631 59.243,14.627 53.212 C 15.390 52.637,16.053 52.167,16.102 52.167 C 16.150 52.167,16.503 51.958,16.887 51.702 C 25.073 46.248,38.880 45.826,45.583 50.826 C 46.160 51.256,48.833 54.035,48.833 54.204 C 48.833 54.293,48.974 54.564,49.146 54.808 C 51.961 58.783,51.531 66.659,48.210 71.974 C 47.580 72.984,44.452 76.330,44.137 76.332 C 44.075 76.333,43.918 76.439,43.789 76.568 C 42.622 77.735,39.279 79.323,36.083 80.228 C 33.882 80.852,33.673 80.871,28.583 80.900 C 23.608 80.929,23.500 80.945,23.500 81.636 C 23.500 83.734,34.837 83.368,40.000 81.104 C 41.560 80.420,41.730 80.339,42.422 79.956 C 45.688 78.146,48.702 75.202,50.714 71.855 C 50.969 71.431,51.221 70.971,51.273 70.833 C 51.326 70.696,51.523 70.246,51.710 69.833 C 53.667 65.518,54.040 58.433,52.529 54.250 C 46.867 38.576,21.536 36.937,7.913 51.363 C 4.404 55.078,1.426 60.205,0.816 63.583 C 0.749 63.950,0.533 65.000,0.334 65.917 C -0.131 68.067,-0.085 74.915,0.409 76.917 C 0.567 77.558,0.762 78.403,0.843 78.793 C 1.229 80.653,2.860 84.229,3.991 85.693 C 4.179 85.937,4.333 86.186,4.333 86.248 C 4.333 86.706,7.423 89.891,9.434 91.504 C 11.046 92.798,14.686 94.781,16.819 95.528 C 19.086 96.321,21.590 97.000,22.891 97.173 C 23.455 97.248,24.667 97.433,25.583 97.583 C 32.292 98.684,42.948 97.573,49.671 95.071 C 50.269 94.849,50.851 94.667,50.964 94.667 C 51.078 94.667,51.488 94.524,51.877 94.349 C 52.265 94.174,53.371 93.677,54.333 93.245 C 57.243 91.936,59.723 90.569,62.311 88.845 C 63.078 88.335,63.879 87.804,64.091 87.667 C 65.693 86.629,70.122 83.036,72.193 81.093 L 73.304 80.051 74.164 80.651 C 75.373 81.492,77.610 82.920,78.500 83.417 C 78.912 83.648,79.362 83.900,79.500 83.978 C 79.841 84.171,80.861 84.699,81.167 84.842 C 81.304 84.906,81.725 85.116,82.102 85.310 C 83.001 85.772,85.118 86.657,85.750 86.835 C 86.025 86.912,86.662 87.124,87.167 87.305 C 88.638 87.833,91.088 88.442,93.381 88.851 C 95.163 89.168,95.494 89.272,95.402 89.490 C 95.342 89.633,95.194 90.050,95.072 90.417 C 94.758 91.364,93.633 94.467,92.888 96.445 C 92.489 97.502,92.406 97.998,92.625 98.003 C 92.694 98.005,93.875 97.821,95.250 97.595 C 96.625 97.369,98.620 97.061,99.683 96.910 C 102.046 96.574,101.752 96.808,102.808 94.417 C 103.294 93.317,103.868 92.042,104.082 91.583 C 104.297 91.125,104.521 90.581,104.581 90.375 C 104.703 89.951,104.764 89.932,107.188 89.586 C 113.373 88.703,117.952 85.942,121.885 80.725 C 122.496 79.914,123.115 79.100,123.260 78.917 C 123.404 78.733,123.820 78.178,124.184 77.683 C 124.548 77.189,125.034 76.551,125.263 76.267 C 125.493 75.983,125.809 75.579,125.965 75.371 C 126.122 75.162,126.325 74.900,126.417 74.787 C 126.508 74.674,126.935 74.133,127.365 73.583 C 128.506 72.125,128.569 72.048,131.529 68.500 C 134.826 64.548,134.710 64.649,134.884 65.554 C 135.498 68.755,134.633 77.379,133.176 82.583 C 132.540 84.858,131.216 87.840,129.792 90.208 C 129.356 90.932,129.000 91.565,129.000 91.615 C 129.000 91.759,127.294 93.706,126.786 94.142 C 123.745 96.747,120.972 95.756,122.346 92.555 C 123.377 90.154,123.519 89.291,123.033 88.381 C 121.358 85.242,116.711 87.793,117.054 91.663 C 117.411 95.693,120.242 97.920,125.000 97.914 C 130.562 97.907,135.244 94.682,143.000 85.514 C 143.412 85.026,143.938 84.415,144.167 84.156 C 145.401 82.760,146.831 80.857,147.038 80.333 C 147.169 80.004,152.750 73.238,154.296 71.535 L 155.008 70.750 154.445 71.750 C 154.136 72.300,153.469 73.462,152.964 74.333 C 152.459 75.204,151.689 76.592,151.254 77.417 C 150.819 78.242,150.408 78.992,150.340 79.083 C 150.236 79.223,149.317 81.245,147.838 84.587 C 146.229 88.222,146.346 92.937,148.106 95.387 C 150.765 99.088,155.224 98.769,159.781 94.550 C 162.249 92.264,165.019 89.372,167.330 86.667 C 167.917 85.979,168.531 85.267,168.694 85.083 C 170.556 82.988,170.927 82.541,171.433 81.788 C 171.693 81.401,172.181 80.746,172.516 80.333 C 172.851 79.921,173.686 78.833,174.371 77.917 C 175.384 76.561,178.414 72.931,179.364 71.934 C 179.485 71.808,179.958 71.281,180.417 70.764 C 185.858 64.618,190.071 61.876,191.079 63.825 C 191.488 64.617,191.102 66.474,190.259 67.759 C 190.117 67.977,190.000 68.245,190.000 68.356 C 190.000 68.467,189.894 68.675,189.765 68.820 C 189.636 68.965,189.349 69.421,189.127 69.833 C 188.466 71.060,187.980 71.889,187.647 72.359 C 187.475 72.602,187.333 72.853,187.333 72.917 C 187.333 72.980,187.165 73.268,186.958 73.557 C 186.561 74.114,186.225 74.673,185.649 75.740 C 185.454 76.100,185.191 76.500,185.064 76.626 C 184.937 76.753,184.831 76.946,184.829 77.054 C 184.826 77.162,184.601 77.545,184.329 77.905 C 184.056 78.265,183.833 78.626,183.833 78.707 C 183.833 78.789,183.646 79.101,183.417 79.402 C 183.188 79.702,183.000 79.991,183.000 80.044 C 183.000 80.097,182.638 80.727,182.196 81.445 C 181.754 82.163,181.339 82.862,181.274 83.000 C 181.209 83.137,180.859 83.700,180.497 84.250 C 180.134 84.800,179.687 85.513,179.503 85.833 C 179.319 86.154,178.982 86.717,178.755 87.083 C 178.527 87.450,178.150 88.087,177.917 88.500 C 177.683 88.912,177.046 89.962,176.500 90.833 C 175.954 91.704,175.318 92.754,175.086 93.167 C 174.547 94.123,174.339 94.459,173.875 95.114 C 173.669 95.406,173.500 95.710,173.500 95.790 C 173.500 95.870,173.313 96.189,173.083 96.500 C 172.854 96.811,172.667 97.118,172.667 97.183 C 172.667 97.341,174.104 97.231,177.833 96.789 C 181.220 96.388,181.151 96.417,182.098 95.000 C 182.975 93.688,183.551 92.914,183.688 92.861 C 183.768 92.831,183.833 92.712,183.833 92.598 C 183.833 92.485,184.021 92.215,184.250 92.000 C 184.479 91.785,184.667 91.515,184.667 91.402 C 184.667 91.288,184.726 91.169,184.799 91.139 C 184.918 91.089,186.833 88.670,187.250 88.043 C 187.342 87.905,187.546 87.633,187.704 87.438 C 188.140 86.898,189.034 85.767,189.500 85.164 C 189.729 84.867,190.104 84.413,190.333 84.155 C 190.803 83.625,190.892 83.521,192.167 82.002 C 194.069 79.735,197.611 76.056,197.463 76.500 C 195.596 82.124,196.088 85.231,199.048 86.505 C 200.790 87.254,204.593 86.543,205.649 85.271 C 205.773 85.122,205.964 85.000,206.073 85.000 C 206.346 85.000,210.000 81.521,210.000 81.261 C 210.000 81.047,210.686 80.167,210.853 80.167 C 210.904 80.167,210.847 80.823,210.726 81.625 C 210.474 83.307,210.438 86.590,210.656 88.167 C 210.739 88.763,210.853 89.679,210.911 90.203 C 211.488 95.477,214.961 98.750,218.993 97.821 C 220.084 97.569,222.351 96.559,223.167 95.961 C 225.956 93.914,228.345 91.519,230.655 88.454 C 231.552 87.263,231.530 87.229,231.226 89.336 C 230.180 96.601,233.951 99.851,239.958 96.861 C 240.256 96.712,240.500 96.533,240.500 96.462 C 240.500 96.391,240.610 96.333,240.744 96.333 C 241.379 96.333,245.970 91.969,249.160 88.333 C 249.843 87.554,250.525 86.804,250.674 86.667 C 250.823 86.529,251.350 85.929,251.846 85.333 C 252.342 84.737,252.787 84.212,252.835 84.167 C 252.945 84.063,254.462 82.164,254.932 81.544 C 255.943 80.208,256.022 79.000,255.098 79.000 C 254.561 79.000,254.388 79.155,252.725 81.125 C 251.738 82.294,250.403 83.849,249.757 84.580 C 249.112 85.312,248.358 86.168,248.083 86.483 C 241.728 93.755,237.118 96.989,235.942 94.998 C 235.009 93.418,236.151 90.386,240.494 82.917 C 240.707 82.550,241.063 81.912,241.285 81.500 C 241.507 81.087,241.945 80.337,242.258 79.833 C 242.571 79.329,242.943 78.692,243.084 78.417 C 243.226 78.142,243.546 77.570,243.796 77.146 C 244.365 76.181,245.260 74.623,245.747 73.750 C 245.952 73.383,246.366 72.671,246.666 72.167 C 247.386 70.960,247.795 70.244,248.285 69.333 C 248.507 68.921,248.943 68.171,249.252 67.667 C 249.790 66.791,250.070 66.302,250.778 65.000 C 250.953 64.679,251.211 64.229,251.351 64.000 C 252.072 62.825,252.667 61.803,252.667 61.739 C 252.667 61.417,244.973 62.001,244.634 62.349 C 244.426 62.562,244.020 63.197,243.083 64.774 C 240.614 68.929,240.497 69.071,240.616 67.749 C 240.964 63.870,238.818 61.347,234.917 61.049 C 233.830 60.967,233.201 61.050,230.232 61.671 C 228.880 61.954,225.382 63.671,223.268 65.091 C 222.728 65.453,222.117 65.862,221.912 66.000 C 221.287 66.418,219.443 67.858,219.000 68.275 C 218.771 68.490,218.140 69.060,217.599 69.542 C 215.034 71.822,211.322 75.984,209.165 79.000 C 205.517 84.099,201.157 86.293,199.129 84.051 C 197.719 82.492,198.236 78.265,200.195 75.325 C 200.792 74.430,203.179 72.000,203.462 72.000 C 203.541 72.000,203.765 71.831,203.959 71.625 C 204.152 71.419,204.550 71.063,204.842 70.833 C 207.401 68.825,210.318 65.812,210.972 64.503 C 213.191 60.062,206.063 59.525,202.881 63.893 C 202.282 64.716,202.159 64.916,201.617 65.952 C 200.803 67.507,199.333 71.183,199.333 71.665 C 199.333 71.763,198.190 72.992,196.792 74.396 C 195.394 75.800,193.407 77.822,192.376 78.891 C 191.345 79.959,190.472 80.833,190.434 80.833 C 190.396 80.833,190.622 80.327,190.936 79.708 C 196.100 69.529,196.332 62.457,191.547 61.066 C 190.193 60.672,187.573 61.234,186.460 62.158 C 186.345 62.254,185.800 62.667,185.250 63.075 C 183.754 64.187,182.082 65.837,179.327 68.923 C 177.766 70.671,172.500 77.019,172.500 77.153 C 172.500 77.237,172.428 77.331,172.339 77.361 C 172.250 77.392,171.844 77.891,171.436 78.472 C 171.028 79.052,170.356 79.914,169.943 80.388 C 169.138 81.313,168.384 82.223,167.583 83.236 C 167.308 83.584,166.933 84.037,166.750 84.243 C 166.567 84.448,166.042 85.046,165.583 85.572 C 162.525 89.082,157.794 93.833,157.358 93.833 C 157.262 93.833,157.123 93.940,157.050 94.069 C 156.870 94.388,155.080 95.380,154.231 95.631 C 151.860 96.331,150.567 94.856,151.319 92.308 C 151.730 90.919,153.398 87.120,153.860 86.519 C 154.029 86.301,154.167 86.051,154.167 85.965 C 154.167 85.788,156.060 82.321,156.529 81.641 C 156.696 81.398,156.833 81.079,156.833 80.933 C 156.833 80.786,156.896 80.667,156.973 80.667 C 157.050 80.667,157.314 80.273,157.561 79.792 C 157.808 79.310,158.228 78.542,158.496 78.083 C 158.764 77.625,159.380 76.542,159.866 75.676 C 161.319 73.087,161.581 72.622,162.079 71.750 C 162.341 71.292,162.721 70.617,162.923 70.250 C 163.857 68.557,164.693 67.061,164.833 66.833 C 164.917 66.696,165.304 66.021,165.694 65.333 C 166.084 64.646,166.530 63.858,166.687 63.583 C 167.119 62.823,167.574 62.004,168.077 61.083 C 168.328 60.625,168.656 60.025,168.806 59.750 C 168.957 59.475,169.165 59.137,169.268 59.000 C 169.372 58.862,169.705 58.300,170.007 57.750 C 170.309 57.200,170.726 56.450,170.934 56.083 C 171.141 55.717,171.456 55.154,171.633 54.833 C 171.810 54.512,172.192 53.837,172.483 53.333 C 172.774 52.829,173.141 52.136,173.298 51.793 L 173.583 51.170 180.336 51.168 L 187.088 51.167 187.530 50.167 L 187.972 49.167 181.399 49.167 L 174.827 49.167 175.174 48.542 C 175.547 47.869,176.006 47.057,176.754 45.744 C 177.013 45.289,177.643 44.183,178.154 43.286 C 178.665 42.389,179.241 41.373,179.433 41.029 C 179.965 40.080,180.548 39.054,181.390 37.590 C 182.314 35.984,182.456 36.112,179.976 36.321 C 178.844 36.416,177.127 36.539,176.162 36.594 C 174.218 36.704,174.382 36.603,173.489 38.250 C 173.340 38.525,172.743 39.575,172.163 40.583 C 171.582 41.592,170.966 42.679,170.793 43.000 C 170.621 43.321,170.260 43.958,169.991 44.417 C 169.723 44.875,169.258 45.692,168.960 46.232 C 168.661 46.772,168.341 47.334,168.249 47.482 C 168.157 47.629,167.899 48.069,167.677 48.458 L 167.272 49.167 164.485 49.167 L 161.698 49.167 161.183 50.081 C 160.899 50.584,160.667 51.032,160.667 51.077 C 160.667 51.122,161.893 51.179,163.393 51.204 L 166.119 51.250 165.482 52.250 C 165.132 52.800,164.770 53.400,164.677 53.583 C 164.584 53.767,164.245 54.329,163.925 54.833 C 163.604 55.337,163.184 56.065,162.990 56.450 C 162.796 56.835,162.532 57.238,162.402 57.345 C 162.273 57.453,162.167 57.612,162.167 57.699 C 162.167 57.786,161.942 58.184,161.667 58.583 C 161.392 58.983,161.167 59.342,161.167 59.382 C 161.167 59.630,157.430 64.914,156.370 66.165 C 156.253 66.303,155.286 67.467,154.222 68.750 C 153.158 70.033,152.147 71.181,151.977 71.301 C 151.806 71.421,151.667 71.598,151.667 71.694 C 151.667 71.790,151.479 72.016,151.250 72.196 C 151.021 72.377,150.833 72.631,150.833 72.762 C 150.833 72.893,150.770 73.000,150.692 73.000 C 150.614 73.000,149.958 73.721,149.233 74.602 C 148.509 75.484,147.785 76.326,147.625 76.473 C 147.465 76.620,147.333 76.833,147.333 76.945 C 147.333 77.058,147.231 77.210,147.107 77.283 C 146.982 77.357,146.524 77.939,146.089 78.578 C 145.654 79.216,145.203 79.816,145.086 79.911 C 144.881 80.078,142.770 82.607,141.750 83.908 C 141.203 84.606,140.643 85.273,140.000 85.996 C 139.771 86.254,139.216 86.886,138.767 87.402 C 137.825 88.483,137.730 88.495,138.094 87.484 C 139.026 84.896,139.020 80.534,138.077 75.750 C 137.860 74.650,137.485 72.757,137.245 71.544 C 136.188 66.218,136.811 62.988,139.000 62.439 C 142.197 61.638,143.166 56.829,140.211 56.423 C 138.850 56.236,136.833 57.048,136.833 57.783 C 136.833 57.893,136.731 58.043,136.607 58.117 C 136.354 58.265,135.102 60.518,134.911 61.167 C 134.844 61.396,133.911 62.633,132.838 63.917 C 131.765 65.200,129.674 67.712,128.190 69.500 C 126.707 71.287,125.396 72.862,125.276 73.000 C 124.778 73.572,123.071 75.726,122.917 75.978 C 122.825 76.128,122.702 76.287,122.644 76.333 C 122.585 76.379,122.009 77.129,121.364 78.000 C 119.706 80.238,119.699 80.246,118.515 81.387 C 116.258 83.564,115.640 84.038,113.436 85.286 C 111.618 86.314,108.861 87.217,106.459 87.571 L 105.667 87.687 105.855 87.219 C 106.062 86.702,106.676 85.076,107.008 84.167 C 107.125 83.846,107.396 83.188,107.610 82.704 C 107.825 82.220,108.000 81.746,108.000 81.651 C 108.000 81.556,108.192 81.059,108.427 80.545 C 108.852 79.616,108.942 79.392,109.713 77.333 C 109.936 76.737,110.251 75.950,110.412 75.583 C 110.723 74.881,110.941 74.362,112.342 71.000 C 113.164 69.027,113.646 67.883,114.627 65.583 C 115.079 64.523,115.631 63.284,116.262 61.917 C 117.135 60.026,117.667 58.828,117.667 58.752 C 117.667 58.676,117.949 58.077,120.458 52.833 C 121.933 49.751,124.658 44.277,125.750 42.205 C 126.246 41.263,126.779 40.251,126.933 39.955 C 127.088 39.659,127.321 39.229,127.450 39.000 C 127.580 38.771,127.840 38.283,128.027 37.917 C 128.214 37.550,128.566 36.902,128.809 36.477 C 129.051 36.051,129.700 34.901,130.250 33.921 C 130.800 32.941,131.458 31.789,131.711 31.361 C 131.965 30.933,132.285 30.358,132.422 30.083 C 132.559 29.808,133.004 29.058,133.412 28.417 C 133.819 27.775,134.156 27.189,134.160 27.114 C 134.163 27.039,134.336 26.739,134.542 26.447 C 134.749 26.155,135.011 25.767,135.125 25.583 C 135.848 24.425,136.451 23.433,136.673 23.039 C 136.814 22.788,137.367 21.908,137.902 21.083 C 139.210 19.066,139.385 18.795,139.581 18.479 C 139.674 18.330,140.048 17.768,140.412 17.229 C 140.775 16.691,141.150 16.124,141.245 15.969 C 141.450 15.634,143.070 13.265,144.339 11.444 C 144.840 10.725,145.325 10.016,145.417 9.867 C 145.508 9.719,145.658 9.510,145.750 9.403 C 145.842 9.295,146.217 8.781,146.583 8.259 C 146.950 7.737,147.644 6.798,148.125 6.171 C 149.225 4.738,149.282 4.393,148.333 4.897 M140.302 12.385 C 139.815 12.964,139.229 13.688,139.000 13.995 C 138.771 14.302,138.507 14.635,138.415 14.735 C 138.270 14.890,136.663 16.923,136.295 17.417 C 136.226 17.508,135.810 18.033,135.370 18.583 C 134.929 19.133,134.439 19.771,134.280 20.000 C 134.121 20.229,133.786 20.685,133.537 21.013 C 133.287 21.341,132.636 22.203,132.090 22.930 C 131.544 23.656,131.038 24.325,130.967 24.417 C 130.896 24.508,130.663 24.808,130.449 25.083 C 129.975 25.691,128.512 27.719,128.167 28.245 C 127.568 29.157,126.233 31.051,126.054 31.243 C 125.827 31.485,124.369 33.656,124.000 34.301 C 123.862 34.541,123.664 34.833,123.558 34.948 C 123.452 35.063,123.194 35.441,122.983 35.787 C 122.773 36.133,122.552 36.454,122.492 36.500 C 122.433 36.546,122.056 37.108,121.656 37.750 C 121.256 38.392,120.607 39.390,120.214 39.969 C 119.821 40.548,119.500 41.066,119.500 41.121 C 119.500 41.175,119.119 41.782,118.653 42.469 C 118.187 43.155,117.734 43.874,117.647 44.067 C 117.560 44.259,117.247 44.810,116.952 45.291 C 115.536 47.600,114.230 49.791,114.045 50.167 C 113.932 50.396,113.616 50.958,113.343 51.417 C 113.070 51.875,112.753 52.438,112.638 52.667 C 112.523 52.896,112.269 53.346,112.075 53.667 C 111.743 54.213,110.290 56.896,109.975 57.542 C 109.897 57.702,109.743 58.002,109.633 58.208 C 109.523 58.415,109.029 59.371,108.535 60.333 C 108.041 61.296,107.520 62.308,107.378 62.583 C 107.235 62.858,107.068 63.196,107.006 63.333 C 106.943 63.471,106.774 63.808,106.629 64.083 C 106.484 64.358,106.173 64.996,105.937 65.500 C 105.701 66.004,105.052 67.392,104.494 68.583 C 103.100 71.558,102.915 71.961,102.502 72.917 C 102.304 73.375,101.959 74.125,101.736 74.583 L 101.329 75.417 101.412 74.750 C 101.992 70.090,102.034 69.304,101.952 64.667 C 101.895 61.416,101.782 59.391,101.595 58.250 C 101.445 57.333,101.250 56.021,101.161 55.333 C 101.026 54.275,100.552 52.093,100.021 50.081 C 99.948 49.804,99.952 49.504,100.029 49.414 C 100.335 49.057,102.903 45.883,103.314 45.354 C 103.554 45.044,103.919 44.610,104.125 44.388 C 104.331 44.166,104.500 43.927,104.500 43.856 C 104.500 43.785,104.669 43.574,104.875 43.387 C 105.081 43.200,105.362 42.905,105.500 42.732 C 106.231 41.809,108.429 39.216,108.663 39.000 C 108.813 38.862,109.343 38.263,109.842 37.668 C 110.342 37.073,110.872 36.473,111.020 36.334 C 111.169 36.196,112.069 35.221,113.019 34.167 C 115.483 31.434,119.999 26.880,122.275 24.833 C 123.345 23.871,124.340 22.966,124.485 22.824 C 124.951 22.366,127.706 20.095,129.083 19.032 C 129.817 18.467,130.527 17.910,130.661 17.795 C 130.795 17.680,131.133 17.431,131.411 17.242 C 135.945 14.152,137.116 13.397,138.167 12.880 C 138.396 12.767,139.108 12.379,139.750 12.018 C 141.303 11.143,141.332 11.162,140.302 12.385 M195.988 11.663 C 195.423 11.962,194.484 12.899,194.051 13.597 C 193.885 13.864,193.851 13.732,193.843 12.792 L 193.833 11.667 192.333 11.667 L 190.833 11.667 190.833 20.667 L 190.833 29.667 192.500 29.667 L 194.167 29.667 194.172 24.542 C 194.180 17.489,194.374 16.378,195.790 15.292 C 196.528 14.725,198.137 14.641,198.979 15.124 C 199.596 15.478,199.659 15.420,200.229 13.972 C 200.856 12.378,200.834 12.287,199.687 11.773 C 198.467 11.225,196.903 11.179,195.988 11.663 M227.250 11.546 C 226.267 11.949,225.574 12.379,224.958 12.969 L 224.333 13.568 224.333 12.617 L 224.333 11.667 222.833 11.667 L 221.333 11.667 221.333 24.083 L 221.333 36.500 222.997 36.500 L 224.661 36.500 224.705 32.476 L 224.750 28.451 225.250 28.870 C 228.177 31.324,233.343 30.178,235.438 26.610 C 238.499 21.397,236.843 13.837,232.207 11.860 C 231.071 11.375,228.122 11.188,227.250 11.546 M245.333 11.508 C 244.396 11.734,242.553 12.440,242.249 12.688 C 241.040 13.677,239.981 15.428,239.796 16.743 C 239.742 17.131,240.455 17.308,242.125 17.324 C 243.107 17.333,243.167 17.311,243.167 16.945 C 243.167 15.291,245.678 13.814,248.066 14.064 C 250.350 14.303,251.515 15.343,251.637 17.253 L 251.701 18.266 249.788 18.716 C 248.736 18.964,247.542 19.167,247.135 19.167 C 241.592 19.167,238.309 22.491,239.591 26.807 C 240.723 30.619,247.219 31.374,251.360 28.176 C 251.912 27.749,252.000 27.748,252.000 28.172 C 252.000 28.358,252.109 28.771,252.241 29.089 L 252.483 29.667 254.158 29.667 C 255.080 29.667,255.833 29.622,255.833 29.567 C 255.833 29.512,255.728 29.231,255.599 28.942 C 255.183 28.012,255.144 27.515,255.009 21.333 C 254.830 13.129,254.593 12.587,250.750 11.560 C 249.827 11.313,246.279 11.279,245.333 11.508 M202.236 11.893 C 202.188 12.017,202.172 15.223,202.200 19.018 L 202.250 25.917 202.768 27.009 C 204.534 30.736,211.207 31.324,213.553 27.960 C 213.805 27.599,213.816 27.628,213.825 28.625 L 213.833 29.667 215.418 29.667 L 217.003 29.667 216.960 20.708 L 216.917 11.750 215.208 11.703 L 213.500 11.655 213.500 17.631 C 213.500 24.557,213.475 24.712,212.142 26.025 C 210.652 27.491,208.038 27.733,206.705 26.529 C 205.574 25.507,205.589 25.611,205.528 18.292 L 205.473 11.667 203.898 11.667 C 202.726 11.667,202.301 11.724,202.236 11.893 M230.774 14.422 C 234.153 16.402,234.640 23.608,231.578 26.303 C 228.991 28.580,225.549 27.203,224.569 23.500 C 223.059 17.793,226.911 12.158,230.774 14.422 M251.626 22.458 C 251.525 24.284,251.112 25.241,250.022 26.180 C 247.332 28.497,242.833 27.738,242.833 24.967 C 242.833 23.056,244.209 22.290,248.750 21.671 C 249.392 21.584,250.217 21.402,250.583 21.268 C 251.730 20.848,251.717 20.833,251.626 22.458 M81.845 34.176 C 82.526 34.365,83.308 34.579,83.583 34.652 C 84.243 34.827,86.558 35.981,87.483 36.596 C 87.887 36.864,88.330 37.158,88.469 37.250 C 88.607 37.342,88.846 37.529,88.998 37.667 C 89.151 37.804,89.631 38.217,90.064 38.583 C 91.924 40.156,94.707 43.801,95.809 46.107 C 95.991 46.486,96.208 46.839,96.291 46.891 C 96.375 46.942,96.650 47.470,96.902 48.064 L 97.361 49.143 96.972 49.695 C 96.758 49.998,96.494 50.322,96.384 50.415 C 96.275 50.507,95.487 51.455,94.634 52.521 C 91.955 55.867,90.285 57.906,89.971 58.215 C 89.803 58.379,89.667 58.569,89.667 58.637 C 89.667 58.705,89.310 59.147,88.875 59.620 C 87.989 60.582,87.919 60.663,86.748 62.076 C 85.438 63.656,85.277 63.848,84.833 64.346 C 84.604 64.604,84.319 64.933,84.200 65.076 C 82.811 66.749,78.628 71.478,77.216 72.970 C 76.923 73.281,75.920 74.339,74.987 75.323 L 73.292 77.111 72.927 76.764 C 69.550 73.554,66.167 69.771,66.167 69.202 C 66.167 69.119,66.035 68.933,65.875 68.787 C 65.030 68.021,63.057 63.420,62.284 60.417 C 61.775 58.434,61.770 58.379,61.769 54.083 L 61.767 49.750 62.287 47.833 C 64.109 41.121,68.435 36.095,73.843 34.409 C 74.617 34.167,75.325 33.945,75.417 33.915 C 76.132 33.678,80.721 33.865,81.845 34.176 M98.869 53.542 C 100.818 62.328,100.512 73.159,98.077 81.583 C 97.865 82.317,97.617 83.179,97.526 83.500 C 97.331 84.188,96.699 86.086,96.483 86.635 C 96.017 87.817,87.260 85.563,82.167 82.950 C 79.730 81.700,77.648 80.438,77.528 80.139 C 77.497 80.062,77.406 80.000,77.324 80.000 C 77.243 80.000,76.699 79.620,76.116 79.155 L 75.056 78.310 75.820 77.512 C 77.152 76.119,79.421 73.635,80.808 72.050 C 81.546 71.207,82.307 70.345,82.500 70.134 C 82.693 69.923,83.022 69.563,83.232 69.333 C 83.443 69.104,84.615 67.717,85.839 66.250 C 87.062 64.783,88.180 63.462,88.323 63.314 C 88.466 63.167,88.854 62.717,89.184 62.314 C 90.323 60.927,96.734 53.248,97.481 52.375 C 98.440 51.255,98.344 51.174,98.869 53.542 M236.881 63.845 C 238.458 64.889,238.965 67.065,238.277 69.833 C 238.129 70.429,237.975 71.104,237.936 71.333 C 237.726 72.547,236.231 76.016,234.631 79.000 C 233.367 81.359,230.219 85.758,227.666 88.734 C 227.292 89.169,224.626 91.838,224.000 92.403 C 223.526 92.831,222.164 93.833,222.056 93.833 C 221.997 93.833,221.716 94.007,221.432 94.219 C 220.317 95.053,218.427 95.612,217.620 95.345 C 214.356 94.268,215.168 87.401,219.632 78.333 C 220.151 77.279,220.746 76.185,220.954 75.901 C 221.163 75.617,221.333 75.322,221.333 75.246 C 221.333 74.885,224.063 71.062,225.734 69.083 C 229.751 64.324,234.345 62.165,236.881 63.845 M343.128 80.621 C 343.428 80.658,343.878 80.657,344.128 80.619 C 344.378 80.581,344.133 80.551,343.583 80.552 C 343.033 80.553,342.828 80.584,343.128 80.621 M353.083 82.167 C 353.441 82.533,353.772 82.833,353.818 82.833 C 353.863 82.833,353.608 82.533,353.250 82.167 C 352.892 81.800,352.562 81.500,352.516 81.500 C 352.470 81.500,352.725 81.800,353.083 82.167 M354.718 90.417 C 354.719 90.967,354.750 91.172,354.787 90.872 C 354.825 90.572,354.824 90.122,354.786 89.872 C 354.748 89.622,354.717 89.867,354.718 90.417 M356.377 101.120 C 356.631 101.158,357.006 101.157,357.211 101.117 C 357.416 101.078,357.208 101.046,356.750 101.048 C 356.292 101.049,356.124 101.081,356.377 101.120 M358.042 101.115 C 358.202 101.157,358.465 101.157,358.625 101.115 C 358.785 101.073,358.654 101.039,358.333 101.039 C 358.012 101.039,357.881 101.073,358.042 101.115 M20.250 117.081 C 13.115 118.069,10.779 124.916,16.570 127.864 C 17.648 128.413,20.503 129.326,21.167 129.335 C 21.396 129.338,22.296 129.525,23.167 129.750 C 24.037 129.975,24.938 130.161,25.167 130.162 C 26.285 130.167,28.884 131.239,29.697 132.031 C 31.649 133.930,29.911 136.595,26.338 137.181 C 24.188 137.533,20.915 137.289,19.661 136.683 C 19.263 136.491,18.841 136.333,18.723 136.333 C 18.117 136.333,16.561 134.422,16.238 133.282 L 15.917 132.147 15.167 132.233 C 14.754 132.281,13.913 132.366,13.298 132.422 L 12.180 132.525 12.268 133.054 C 12.316 133.345,12.390 133.754,12.432 133.963 C 12.553 134.563,13.334 136.181,13.683 136.555 C 13.857 136.743,14.000 136.946,14.000 137.007 C 14.000 137.801,17.696 139.603,20.167 140.014 C 28.700 141.432,35.080 137.960,34.127 132.417 C 33.633 129.542,31.115 127.929,25.417 126.837 C 17.956 125.408,16.311 124.429,17.375 122.050 C 18.518 119.495,25.635 118.940,28.304 121.198 C 28.595 121.444,28.833 121.700,28.833 121.768 C 28.833 121.835,28.957 122.028,29.109 122.195 C 29.261 122.363,29.475 122.856,29.586 123.292 L 29.788 124.083 30.686 124.038 C 32.361 123.954,33.500 123.801,33.500 123.661 C 33.500 123.056,32.897 121.149,32.571 120.719 C 32.348 120.428,32.167 120.152,32.167 120.107 C 32.167 119.974,31.152 119.000,31.013 119.000 C 30.943 119.000,30.751 118.851,30.586 118.670 C 29.377 117.334,24.186 116.536,20.250 117.081 M57.611 117.278 C 57.550 117.339,57.500 122.439,57.500 128.611 L 57.500 139.833 59.333 139.833 L 61.167 139.833 61.167 136.674 L 61.167 133.514 61.761 133.049 C 62.088 132.793,62.546 132.411,62.779 132.200 C 63.356 131.677,63.667 131.964,66.333 135.496 C 66.837 136.163,67.419 136.877,67.625 137.082 C 67.831 137.287,68.000 137.536,68.000 137.636 C 68.000 137.735,68.095 137.877,68.211 137.950 C 68.327 138.023,68.717 138.477,69.078 138.958 L 69.735 139.833 71.946 139.833 C 74.571 139.833,74.528 139.957,72.677 137.742 C 71.984 136.913,71.192 135.945,70.917 135.591 C 70.642 135.237,70.267 134.771,70.083 134.555 C 69.900 134.339,69.553 133.920,69.313 133.623 C 69.073 133.326,68.266 132.352,67.521 131.457 C 66.271 129.957,65.921 129.333,66.327 129.333 C 66.415 129.333,67.146 128.788,67.952 128.122 C 68.758 127.457,69.754 126.652,70.167 126.334 C 71.697 125.157,73.500 123.609,73.500 123.473 C 73.500 123.396,72.484 123.333,71.243 123.333 L 68.987 123.333 65.118 126.581 L 61.250 129.829 61.206 123.498 L 61.163 117.167 59.442 117.167 C 58.496 117.167,57.672 117.217,57.611 117.278 M97.944 117.278 C 97.883 117.339,97.833 119.870,97.833 122.903 L 97.833 128.417 97.259 128.875 C 96.943 129.127,96.624 129.336,96.551 129.338 C 95.873 129.363,95.333 130.357,95.333 131.581 C 95.333 133.064,95.348 133.070,96.760 132.083 L 97.833 131.332 97.833 135.583 L 97.833 139.833 99.583 139.833 L 101.333 139.833 101.341 134.292 L 101.348 128.750 102.366 128.087 C 103.849 127.123,103.833 127.149,103.833 125.655 C 103.833 124.928,103.791 124.333,103.738 124.333 C 103.615 124.333,102.148 125.337,101.863 125.617 C 101.378 126.094,101.333 125.748,101.333 121.500 L 101.333 117.167 99.694 117.167 C 98.793 117.167,98.006 117.217,97.944 117.278 M135.833 118.665 L 135.833 120.167 140.250 120.167 L 144.667 120.167 144.667 130.000 L 144.667 139.833 146.667 139.833 L 148.667 139.833 148.667 130.000 L 148.667 120.167 153.173 120.167 L 157.680 120.167 157.631 118.708 L 157.583 117.250 146.708 117.207 L 135.833 117.164 135.833 118.665 M185.867 117.367 C 185.757 117.477,185.667 117.619,185.667 117.683 C 185.667 117.747,185.356 118.311,184.975 118.937 C 184.290 120.065,183.500 121.496,183.500 121.608 C 183.500 121.640,184.187 121.667,185.027 121.667 L 186.554 121.667 188.605 119.542 C 189.733 118.373,190.658 117.360,190.661 117.292 C 190.671 117.072,186.089 117.144,185.867 117.367 M82.043 123.340 C 81.271 123.479,80.503 123.761,79.192 124.387 C 78.689 124.627,76.667 126.477,76.667 126.697 C 76.667 126.790,76.522 127.069,76.344 127.318 C 75.281 128.811,75.174 133.539,76.155 135.667 C 79.097 142.043,91.053 141.813,93.568 135.332 C 96.445 127.920,90.570 121.807,82.043 123.340 M111.559 123.331 C 110.142 123.532,107.167 124.882,107.167 125.325 C 107.167 125.382,106.998 125.637,106.792 125.893 C 105.605 127.368,105.569 128.500,106.708 128.501 C 107.190 128.502,107.970 128.549,108.443 128.606 L 109.303 128.710 109.742 127.783 C 111.002 125.120,117.708 124.805,118.623 127.366 C 119.027 128.495,119.067 129.290,118.727 129.393 C 117.811 129.669,114.922 130.167,114.224 130.170 C 108.198 130.192,104.439 132.940,105.371 136.641 C 105.604 137.566,106.395 138.833,106.739 138.833 C 106.825 138.833,107.064 138.992,107.271 139.186 C 108.751 140.577,114.686 140.616,117.129 139.250 C 117.540 139.021,117.946 138.833,118.032 138.833 C 118.118 138.833,118.437 138.644,118.739 138.414 L 119.290 137.994 119.402 138.697 C 119.579 139.801,119.646 139.833,121.770 139.833 C 122.813 139.833,123.667 139.805,123.667 139.771 C 123.667 139.737,123.465 139.348,123.219 138.907 L 122.770 138.105 122.664 132.511 C 122.529 125.338,122.393 124.945,119.679 123.814 C 118.299 123.240,114.009 122.984,111.559 123.331 M161.910 123.328 C 159.448 123.610,157.329 124.941,156.477 126.743 C 155.753 128.273,155.804 128.500,156.875 128.501 C 157.356 128.502,158.125 128.546,158.583 128.599 L 159.417 128.695 159.913 127.761 C 161.007 125.700,165.156 124.900,167.666 126.266 C 168.769 126.866,169.571 128.961,168.865 129.397 C 168.556 129.588,165.136 130.150,163.705 130.244 C 158.441 130.591,155.654 132.237,155.371 135.168 C 155.008 138.931,159.437 141.168,164.947 140.005 C 166.366 139.706,168.838 138.666,168.972 138.313 C 169.114 137.940,169.440 138.241,169.673 138.959 L 169.929 139.750 171.864 139.797 L 173.799 139.844 173.367 138.797 C 172.944 137.773,172.932 137.633,172.807 132.417 C 172.737 129.483,172.608 126.793,172.520 126.438 C 171.873 123.836,167.827 122.650,161.910 123.328 M184.833 123.307 C 183.883 123.458,182.620 124.056,181.708 124.787 L 181.000 125.356 181.000 124.344 L 181.000 123.333 179.417 123.333 L 177.833 123.333 177.833 131.583 L 177.833 139.833 179.577 139.833 L 181.320 139.833 181.368 134.446 L 181.417 129.059 181.917 128.082 C 183.388 125.206,188.978 124.920,190.028 127.667 C 190.279 128.322,190.316 129.141,190.324 134.125 L 190.333 139.833 192.167 139.833 L 194.000 139.833 194.000 133.768 C 194.000 126.664,193.917 126.124,192.631 124.902 C 191.134 123.478,187.915 122.820,184.833 123.307 M204.583 123.323 C 200.431 124.009,197.975 127.093,197.939 131.667 C 197.898 137.009,201.344 140.317,206.965 140.331 C 211.143 140.341,215.333 137.445,215.333 134.548 L 215.333 134.053 213.760 133.860 C 211.743 133.612,211.834 133.604,211.827 134.042 C 211.823 134.248,211.614 134.798,211.363 135.265 C 209.263 139.161,203.103 138.424,201.991 134.143 C 201.102 130.721,202.016 127.617,204.301 126.300 C 205.517 125.599,208.499 125.472,209.417 126.083 C 210.395 126.733,210.993 127.387,211.267 128.105 C 211.583 128.932,211.504 128.915,213.625 128.633 C 215.372 128.401,215.317 128.505,214.562 126.874 C 213.229 123.995,209.199 122.561,204.583 123.323 M223.228 123.342 C 222.235 123.472,220.106 124.263,219.573 124.700 C 218.743 125.382,218.064 126.311,217.761 127.180 C 217.316 128.458,217.294 128.437,219.208 128.556 C 220.984 128.666,221.333 128.554,221.333 127.878 C 221.333 125.970,226.722 124.875,229.172 126.285 C 230.146 126.846,230.378 127.225,230.595 128.607 L 230.703 129.297 229.161 129.659 C 228.312 129.858,226.747 130.092,225.684 130.178 C 219.378 130.690,216.932 132.205,216.945 135.589 C 216.950 136.978,217.081 137.388,217.794 138.244 C 218.216 138.751,218.313 138.822,219.444 139.445 C 222.229 140.979,228.077 140.308,230.769 138.146 C 230.898 138.042,230.983 138.203,231.046 138.671 C 231.195 139.781,231.302 139.833,233.440 139.833 L 235.339 139.833 234.888 138.958 L 234.438 138.083 234.342 132.500 L 234.247 126.917 233.804 126.000 C 232.644 123.596,228.763 122.620,223.228 123.342 M37.500 124.583 L 37.500 125.833 43.167 125.833 C 48.520 125.833,49.278 125.896,48.600 126.283 C 48.471 126.357,47.186 127.542,45.743 128.917 C 44.300 130.292,42.369 132.129,41.451 133.000 C 40.533 133.871,39.250 135.099,38.599 135.730 C 37.949 136.361,37.248 136.988,37.042 137.124 C 36.709 137.344,36.667 137.511,36.667 138.603 L 36.667 139.833 45.590 139.833 L 54.514 139.833 54.465 138.542 L 54.417 137.250 48.007 137.277 L 41.597 137.303 42.674 136.277 C 45.681 133.413,51.069 128.240,52.444 126.896 L 54.000 125.375 54.000 124.354 L 54.000 123.333 45.750 123.333 L 37.500 123.333 37.500 124.583 M87.367 126.184 C 89.997 127.525,91.119 130.784,90.100 134.121 C 88.517 139.305,80.195 138.775,79.304 133.435 C 78.657 129.554,80.315 126.349,83.250 125.809 C 84.403 125.598,86.612 125.798,87.367 126.184 M356.246 128.375 L 354.917 129.750 356.292 128.421 C 357.569 127.186,357.743 127.000,357.621 127.000 C 357.596 127.000,356.977 127.619,356.246 128.375 M118.898 132.875 C 118.850 133.356,118.732 134.111,118.636 134.553 C 117.841 138.203,109.755 139.176,109.069 135.704 C 108.765 134.167,110.482 133.130,113.833 132.824 C 114.796 132.736,116.146 132.523,116.833 132.351 C 118.938 131.822,119.000 131.838,118.898 132.875 M169.032 132.708 C 169.110 133.779,168.877 134.836,168.419 135.493 C 166.142 138.761,159.056 138.614,159.374 135.305 C 159.522 133.759,160.689 133.134,164.000 132.827 C 164.962 132.738,166.313 132.523,167.000 132.351 C 168.925 131.867,168.972 131.875,169.032 132.708 M230.593 132.875 C 230.263 135.620,229.439 136.671,226.982 137.482 C 224.060 138.445,221.115 137.607,220.737 135.704 C 220.446 134.246,222.716 132.833,225.350 132.833 C 226.079 132.833,229.494 132.228,229.651 132.071 C 229.690 132.032,229.942 132.000,230.210 132.000 L 230.698 132.000 230.593 132.875 M174.290 148.317 C 173.854 148.762,173.067 149.342,172.540 149.605 C 171.622 150.064,171.581 150.112,171.532 150.792 C 171.475 151.583,171.613 151.656,172.394 151.249 C 172.657 151.112,172.958 151.000,173.064 151.000 C 173.169 151.000,173.536 150.810,173.878 150.577 L 174.500 150.155 174.500 154.086 L 174.500 158.017 175.375 157.967 L 176.250 157.917 176.294 152.708 L 176.338 147.500 175.711 147.504 C 175.183 147.508,174.957 147.637,174.290 148.317 M182.543 147.676 C 178.381 148.497,179.296 154.495,183.583 154.497 C 184.720 154.498,185.088 154.388,186.051 153.756 L 186.519 153.449 186.405 153.933 C 185.733 156.780,182.890 157.982,181.987 155.802 C 181.719 155.154,180.161 155.074,180.174 155.708 C 180.216 157.806,184.046 158.925,186.230 157.479 C 188.765 155.800,188.938 149.939,186.502 148.251 C 185.537 147.582,184.086 147.372,182.543 147.676 M192.135 147.664 C 189.069 148.210,188.344 152.430,191.046 154.006 C 192.244 154.705,194.248 154.685,195.262 153.963 C 196.051 153.402,196.058 153.410,195.734 154.500 C 195.013 156.930,192.309 157.787,191.503 155.841 C 191.259 155.251,189.926 155.065,189.723 155.592 C 188.983 157.521,193.603 158.935,195.773 157.444 C 197.241 156.435,197.997 154.060,197.674 151.470 C 197.301 148.480,195.294 147.101,192.135 147.664 M202.815 148.326 C 202.321 148.780,201.504 149.365,201.000 149.625 C 200.124 150.078,200.081 150.131,200.031 150.820 C 199.969 151.677,200.180 151.677,201.902 150.822 C 202.443 150.553,202.912 150.333,202.943 150.333 C 202.974 150.333,203.000 152.058,203.000 154.167 L 203.000 158.000 203.917 158.000 L 204.833 158.000 204.833 152.750 L 204.833 147.500 204.273 147.500 C 203.833 147.500,203.519 147.678,202.815 148.326 M58.667 152.833 L 58.667 158.000 59.667 158.000 L 60.667 158.000 60.667 155.733 L 60.667 153.467 62.155 153.525 C 64.000 153.597,64.098 153.663,66.074 156.135 L 67.564 158.000 68.615 158.000 C 69.649 158.000,70.096 157.618,69.496 157.248 C 69.403 157.190,69.015 156.717,68.635 156.196 C 67.653 154.851,66.839 153.952,66.369 153.693 C 65.895 153.432,65.988 153.318,66.992 152.930 C 68.744 152.252,69.401 150.412,68.411 148.956 C 67.594 147.753,67.209 147.667,62.673 147.667 L 58.667 147.667 58.667 152.833 M80.333 152.833 L 80.333 158.000 81.250 158.000 L 82.167 158.000 82.167 156.512 C 82.167 155.100,82.189 155.006,82.609 154.676 C 83.076 154.309,83.667 154.544,83.667 155.095 C 83.667 155.211,83.728 155.331,83.803 155.361 C 83.878 155.392,84.374 155.998,84.906 156.708 L 85.874 158.000 86.937 158.000 C 88.245 158.000,88.247 157.955,87.013 156.452 C 84.505 153.398,84.233 153.000,84.658 153.000 C 84.745 153.000,85.003 152.831,85.232 152.625 C 85.461 152.419,86.103 151.880,86.658 151.427 C 87.916 150.401,87.912 150.333,86.608 150.333 C 85.604 150.333,82.833 152.047,82.833 152.668 C 82.833 152.737,82.683 152.834,82.500 152.882 C 82.177 152.966,82.167 152.887,82.167 150.318 L 82.167 147.667 81.250 147.667 L 80.333 147.667 80.333 152.833 M111.667 150.214 L 111.667 152.761 111.167 153.057 C 110.299 153.569,110.471 154.962,111.344 154.494 C 111.654 154.328,111.667 154.394,111.667 156.161 L 111.667 158.000 112.583 158.000 L 113.500 158.000 113.501 155.458 L 113.502 152.917 114.084 152.520 C 115.077 151.844,114.906 150.450,113.911 151.103 L 113.500 151.372 113.500 149.519 L 113.500 147.667 112.583 147.667 L 111.667 147.667 111.667 150.214 M152.667 148.500 L 152.667 149.333 153.583 149.333 L 154.500 149.333 154.500 148.500 L 154.500 147.667 153.583 147.667 L 152.667 147.667 152.667 148.500 M127.444 147.944 C 127.383 148.006,127.333 148.418,127.333 148.861 L 127.333 149.667 128.500 149.667 L 129.667 149.667 129.667 148.750 L 129.667 147.833 128.611 147.833 C 128.031 147.833,127.506 147.883,127.444 147.944 M185.049 149.101 C 186.718 149.897,186.515 152.506,184.746 153.001 C 182.772 153.554,181.220 152.052,181.906 150.254 C 182.373 149.032,183.804 148.507,185.049 149.101 M194.553 149.102 C 196.233 149.904,196.028 152.502,194.246 153.001 C 192.235 153.564,190.642 151.958,191.454 150.186 C 192.000 148.995,193.343 148.525,194.553 149.102 M65.909 149.236 C 67.191 149.772,67.100 151.320,65.756 151.831 C 65.512 151.924,64.267 152.000,62.989 152.000 L 60.667 152.000 60.667 150.500 L 60.667 149.000 63.005 149.000 C 64.645 149.000,65.513 149.071,65.909 149.236 M72.862 150.378 C 70.705 151.068,69.732 153.901,70.844 156.250 C 72.149 159.006,77.864 158.604,78.682 155.699 C 79.738 151.948,76.684 149.155,72.862 150.378 M104.093 150.415 C 102.901 150.840,101.830 151.984,102.061 152.586 C 102.241 153.055,103.742 152.916,103.974 152.408 C 104.581 151.074,107.985 151.313,107.997 152.691 C 108.001 153.065,107.736 153.144,105.301 153.498 C 102.309 153.932,101.485 154.700,101.914 156.655 C 102.209 157.998,105.706 158.593,107.449 157.596 L 108.147 157.197 108.199 157.557 C 108.244 157.872,108.372 157.923,109.230 157.967 C 110.189 158.017,110.207 158.010,110.077 157.634 C 110.004 157.423,109.894 155.975,109.832 154.417 C 109.769 152.858,109.707 151.568,109.693 151.550 C 108.660 150.232,106.078 149.708,104.093 150.415 M117.060 150.675 C 115.080 151.697,114.356 154.434,115.563 156.341 C 117.093 158.760,121.934 158.679,123.167 156.215 C 125.111 152.331,121.029 148.628,117.060 150.675 M135.750 150.378 C 135.116 150.639,134.288 151.181,134.121 151.446 C 134.051 151.558,133.880 151.763,133.742 151.901 C 133.075 152.568,133.054 155.463,133.709 156.436 C 135.412 158.964,141.500 158.417,141.500 155.736 C 141.500 155.198,139.714 155.187,139.510 155.724 C 138.975 157.130,136.490 157.173,135.439 155.794 C 134.480 154.536,134.561 154.500,138.333 154.500 L 141.667 154.500 141.667 154.114 C 141.667 151.323,138.428 149.278,135.750 150.378 M145.608 150.579 C 144.865 150.974,144.833 150.977,144.833 150.662 C 144.833 150.379,144.718 150.333,144.000 150.333 L 143.167 150.333 143.167 154.167 L 143.167 158.000 144.083 158.000 L 145.000 158.000 145.000 155.484 C 145.000 152.480,145.119 152.153,146.367 151.739 C 148.382 151.070,148.900 151.771,148.975 155.267 L 149.034 158.000 149.850 158.000 L 150.667 158.000 150.667 155.094 C 150.667 152.077,150.586 151.586,149.992 150.992 C 149.066 150.066,146.949 149.866,145.608 150.579 M158.461 150.333 C 157.331 150.673,155.931 152.150,156.250 152.666 C 156.511 153.089,157.981 152.854,158.243 152.347 C 158.880 151.115,162.167 151.308,162.167 152.577 C 162.167 153.123,162.113 153.144,159.964 153.434 C 157.325 153.790,157.343 153.785,156.636 154.491 C 155.712 155.415,155.716 156.422,156.647 157.353 L 157.294 158.000 159.207 158.000 C 160.954 158.000,161.172 157.965,161.712 157.598 L 162.305 157.196 162.405 157.598 C 162.498 157.967,162.589 158.000,163.503 158.000 C 164.603 158.000,164.596 158.005,164.271 157.367 C 164.115 157.062,164.017 156.046,163.966 154.211 C 163.881 151.175,163.837 151.056,162.583 150.480 C 161.867 150.151,159.361 150.062,158.461 150.333 M93.333 151.000 L 93.333 151.667 95.773 151.667 L 98.213 151.667 95.607 154.187 C 93.119 156.591,93.000 156.736,93.000 157.356 L 93.000 158.006 97.042 157.961 L 101.083 157.917 101.135 157.292 L 101.187 156.667 98.302 156.658 L 95.417 156.650 98.125 154.021 C 100.504 151.711,100.833 151.327,100.833 150.862 L 100.833 150.333 97.083 150.333 L 93.333 150.333 93.333 151.000 M124.667 151.000 L 124.667 151.667 127.125 151.672 L 129.583 151.676 126.953 154.213 C 124.467 156.611,124.323 156.784,124.328 157.375 L 124.333 158.000 128.417 158.000 L 132.500 158.000 132.500 157.333 L 132.500 156.667 129.625 156.664 L 126.750 156.662 129.458 154.066 C 131.922 151.705,132.167 151.419,132.167 150.902 L 132.167 150.333 128.417 150.333 L 124.667 150.333 124.667 151.000 M152.667 154.167 L 152.667 158.000 153.583 158.000 L 154.500 158.000 154.500 154.167 L 154.500 150.333 153.583 150.333 L 152.667 150.333 152.667 154.167 M75.853 151.843 C 77.453 152.660,77.443 155.672,75.836 156.525 C 74.005 157.497,72.265 156.338,72.265 154.146 C 72.265 151.982,73.974 150.885,75.853 151.843 M120.489 151.828 C 121.722 152.457,122.167 154.149,121.454 155.498 C 120.205 157.860,116.833 156.869,116.833 154.139 C 116.833 152.167,118.763 150.947,120.489 151.828 M138.680 151.840 C 139.265 152.138,139.667 152.683,139.667 153.178 C 139.667 153.267,138.669 153.333,137.333 153.333 C 134.822 153.333,134.763 153.307,135.450 152.491 C 136.293 151.489,137.511 151.244,138.680 151.840 M108.000 154.842 C 108.000 156.318,105.907 157.388,104.423 156.670 C 103.007 155.984,103.567 155.101,105.654 154.728 C 107.434 154.410,108.000 154.437,108.000 154.842 M162.167 154.987 C 162.167 156.595,159.213 157.581,158.095 156.347 C 157.478 155.665,158.092 155.094,159.812 154.751 C 161.732 154.369,162.167 154.413,162.167 154.987"></path><path id="path1" d="M360.000 59.083 L 358.758 60.333 357.799 60.333 L 356.840 60.333 356.462 61.066 C 355.691 62.557,354.168 63.511,350.750 64.639 C 347.259 65.791,346.558 66.092,345.616 66.842 L 344.790 67.500 343.067 67.500 C 341.550 67.500,341.325 67.537,341.177 67.814 C 340.866 68.395,339.333 69.115,339.333 68.680 C 339.333 68.462,338.270 67.834,337.897 67.832 C 337.724 67.831,336.946 67.531,336.167 67.167 C 333.429 65.885,331.850 66.474,329.283 69.734 C 326.195 73.655,324.536 75.402,322.744 76.620 C 322.007 77.121,321.833 77.100,321.833 76.510 C 321.833 76.240,321.758 75.973,321.667 75.917 C 321.575 75.860,321.500 75.924,321.500 76.060 C 321.500 76.195,321.435 76.331,321.355 76.361 C 321.033 76.484,319.833 78.514,318.318 81.498 L 317.346 83.412 318.109 84.831 C 319.688 87.766,321.742 90.492,324.705 93.583 L 326.463 95.417 326.586 94.583 C 327.100 91.108,328.517 88.472,329.969 88.287 C 331.292 88.119,333.055 87.107,333.405 86.315 C 333.572 85.937,334.024 85.166,334.409 84.603 C 335.084 83.617,335.108 83.540,335.035 82.539 C 334.963 81.543,334.985 81.469,335.565 80.761 C 335.898 80.355,336.204 79.811,336.245 79.553 C 336.285 79.295,336.404 78.480,336.508 77.742 C 336.788 75.753,337.345 75.517,338.575 76.867 C 339.658 78.056,340.608 78.211,341.169 77.291 C 341.627 76.540,341.588 76.320,340.902 75.773 C 339.989 75.044,340.305 74.909,342.801 74.960 L 344.917 75.003 345.583 74.251 C 346.290 73.453,348.367 72.877,348.910 73.328 C 349.348 73.691,350.511 72.554,350.411 71.861 C 350.298 71.084,350.395 70.969,351.447 70.641 L 352.310 70.371 352.417 71.002 C 352.496 71.472,352.434 71.810,352.172 72.322 C 351.533 73.575,352.422 73.853,353.966 72.884 L 354.974 72.250 354.889 71.333 C 354.807 70.456,354.836 70.371,355.567 69.333 C 356.254 68.357,356.302 68.230,356.053 68.044 C 355.638 67.735,354.484 67.965,354.083 68.437 C 353.900 68.653,352.889 69.289,351.837 69.851 L 349.924 70.873 349.379 70.242 C 349.079 69.895,348.833 69.523,348.833 69.416 C 348.833 68.904,352.884 65.500,353.494 65.500 C 353.653 65.500,354.019 65.275,354.307 65.000 C 355.454 63.904,359.833 65.175,359.833 66.605 C 359.833 67.309,360.755 67.299,362.666 66.575 L 364.327 65.946 363.800 65.015 C 363.510 64.503,363.201 63.964,363.113 63.818 C 362.904 63.473,363.119 62.341,363.414 62.228 C 363.794 62.082,364.600 62.813,364.998 63.662 C 365.346 64.406,365.422 64.467,366.126 64.563 C 367.969 64.816,368.269 64.679,367.681 63.853 C 366.992 62.886,367.044 62.217,367.818 62.086 C 368.496 61.971,368.499 61.968,368.401 61.354 C 368.304 60.751,368.322 60.726,369.151 60.275 C 370.426 59.580,370.495 59.623,366.583 58.679 C 365.400 58.394,361.998 57.833,361.449 57.833 C 361.335 57.833,360.683 58.396,360.000 59.083 M370.732 79.348 C 370.608 80.283,370.441 80.429,369.778 80.177 C 369.331 80.007,368.500 80.226,368.500 80.514 C 368.500 80.988,369.398 81.670,369.898 81.576 C 370.348 81.491,370.539 81.576,371.186 82.145 L 371.946 82.814 371.771 83.667 C 371.568 84.658,371.701 84.827,372.686 84.831 C 374.021 84.836,374.462 84.018,373.583 83.167 C 373.193 82.789,373.000 82.448,373.000 82.140 C 373.000 81.849,372.810 81.484,372.489 81.156 C 372.021 80.676,372.000 80.609,372.239 80.345 C 372.658 79.882,372.562 79.400,372.006 79.169 C 371.734 79.056,371.424 78.860,371.318 78.732 C 370.985 78.330,370.848 78.474,370.732 79.348 M362.552 79.875 C 362.477 79.990,362.300 80.496,362.158 81.000 C 361.987 81.604,361.821 81.899,361.670 81.865 C 358.644 81.185,358.333 81.262,358.333 82.687 L 358.333 83.338 357.740 83.090 C 357.275 82.896,357.080 82.885,356.833 83.039 C 356.580 83.197,356.458 83.180,356.205 82.951 C 355.808 82.592,355.565 82.590,355.429 82.945 C 355.266 83.370,355.484 83.478,356.900 83.675 C 357.618 83.775,358.377 83.921,358.586 84.001 C 358.894 84.118,359.093 84.036,359.641 83.566 L 360.317 82.988 361.689 83.160 C 362.692 83.285,363.161 83.426,363.436 83.685 C 363.765 83.994,363.967 84.030,365.061 83.974 C 366.899 83.882,366.903 83.764,365.122 82.250 C 364.475 81.700,363.714 80.898,363.431 80.467 C 362.880 79.629,362.762 79.550,362.552 79.875 M343.950 81.403 L 343.080 82.346 342.204 82.144 C 341.223 81.917,341.073 82.008,340.565 83.143 C 340.218 83.916,340.359 83.958,341.271 83.354 C 342.216 82.728,342.333 82.715,342.333 83.234 C 342.333 83.534,342.466 83.680,342.868 83.820 C 343.162 83.923,343.556 84.142,343.743 84.308 C 343.930 84.474,344.383 84.698,344.750 84.804 C 345.837 85.122,345.903 85.201,345.668 85.912 C 345.555 86.255,345.528 86.593,345.607 86.670 C 346.992 88.020,348.589 89.022,348.885 88.726 C 348.944 88.667,350.188 88.611,351.649 88.601 C 354.759 88.580,354.611 88.655,354.193 87.309 C 353.961 86.562,353.860 86.385,353.849 86.708 C 353.828 87.317,353.554 87.294,353.418 86.671 C 353.315 86.205,352.492 85.333,352.154 85.333 C 352.069 85.333,352.000 84.930,352.000 84.437 C 352.000 83.336,351.602 82.824,351.413 83.683 C 351.308 84.161,349.457 86.667,349.208 86.667 C 348.902 86.667,347.268 85.351,346.964 84.859 L 346.608 84.282 347.056 83.925 C 347.455 83.607,347.833 82.775,347.833 82.216 C 347.833 81.735,346.525 80.667,345.937 80.667 C 345.620 80.667,345.239 80.620,345.091 80.563 C 344.904 80.491,344.555 80.748,343.950 81.403 M355.026 83.927 C 354.864 84.282,354.900 84.556,355.238 85.552 C 355.462 86.211,355.736 87.225,355.847 87.805 C 356.076 89.003,356.174 89.077,357.776 89.254 C 358.360 89.319,358.942 89.288,359.229 89.178 C 359.583 89.041,359.767 89.042,359.937 89.183 C 360.111 89.328,360.232 89.320,360.434 89.152 C 360.582 89.030,360.856 88.852,361.043 88.757 C 362.619 87.956,360.960 86.936,359.019 87.512 C 358.483 87.672,358.292 87.633,357.292 87.163 L 356.167 86.635 356.167 85.261 C 356.167 83.950,356.147 83.878,355.742 83.693 C 355.201 83.447,355.252 83.430,355.026 83.927 M335.123 84.506 C 333.416 86.407,333.223 86.972,334.535 86.230 C 336.003 85.400,337.672 84.696,338.475 84.568 C 339.881 84.343,338.890 83.849,336.862 83.764 L 335.829 83.720 335.123 84.506 M368.593 89.030 C 368.811 89.718,369.278 90.330,369.963 90.826 C 370.341 91.099,370.726 91.466,370.819 91.641 C 371.319 92.575,372.625 93.079,374.778 93.167 C 376.716 93.247,376.836 93.273,377.291 93.709 C 377.655 94.059,377.932 94.167,378.463 94.167 C 379.643 94.167,379.981 95.314,379.321 97.077 C 379.038 97.835,378.906 98.000,378.586 98.000 C 377.667 98.000,376.354 98.731,374.281 100.395 C 371.904 102.303,370.404 103.167,369.468 103.167 L 368.852 103.167 368.301 101.709 C 367.792 100.362,367.640 100.143,366.309 98.834 L 364.867 97.417 364.691 95.871 C 364.498 94.175,363.299 91.986,362.446 91.772 C 362.244 91.722,361.801 91.316,361.462 90.871 C 360.862 90.085,360.098 89.513,359.905 89.706 C 359.772 89.839,360.354 90.922,361.111 91.950 C 362.757 94.185,363.366 95.345,363.515 96.531 C 363.688 97.906,363.831 98.202,364.540 98.640 C 365.345 99.139,365.939 99.823,366.300 100.670 C 367.586 103.682,370.121 105.247,371.804 104.069 C 372.176 103.808,374.399 103.677,374.624 103.902 C 374.678 103.956,374.485 104.296,374.195 104.657 C 373.792 105.158,373.667 105.478,373.667 106.006 C 373.667 106.387,373.538 106.916,373.382 107.181 C 373.098 107.661,373.100 107.668,373.683 108.290 C 376.428 111.220,378.002 115.548,377.998 120.156 C 377.990 129.064,372.345 137.365,362.750 142.575 C 360.552 143.769,360.566 143.788,363.333 143.405 C 367.006 142.897,370.531 141.883,374.333 140.239 C 376.016 139.512,376.411 139.322,377.250 138.836 C 377.708 138.570,378.271 138.257,378.500 138.140 C 379.377 137.692,382.500 135.612,382.500 135.476 C 382.500 135.398,382.584 135.333,382.686 135.333 C 382.789 135.333,383.145 135.102,383.478 134.820 C 383.811 134.538,384.458 133.997,384.917 133.618 C 386.592 132.235,389.702 128.986,391.013 127.250 C 391.360 126.792,391.948 126.021,392.321 125.538 C 392.695 125.055,393.000 124.630,393.000 124.593 C 393.000 124.556,393.377 123.919,393.837 123.177 C 394.675 121.826,396.500 118.362,396.500 118.123 C 396.500 118.054,396.646 117.678,396.824 117.290 C 398.252 114.181,399.618 108.830,399.222 107.902 C 399.108 107.635,399.012 107.016,399.008 106.525 C 399.000 105.657,398.972 105.605,397.902 104.497 C 396.717 103.270,396.511 102.784,396.504 101.202 C 396.501 100.599,396.397 100.177,396.176 99.868 C 395.690 99.191,395.499 97.993,395.932 98.333 C 396.107 98.471,396.306 98.671,396.375 98.778 C 396.444 98.884,396.985 99.242,397.576 99.573 L 398.651 100.174 398.762 101.157 C 398.855 101.980,398.965 102.229,399.437 102.686 L 400.000 103.232 399.997 99.908 C 399.994 96.739,399.884 95.331,399.487 93.375 L 399.310 92.500 398.661 92.500 C 397.872 92.500,397.652 92.819,397.780 93.776 C 397.993 95.361,396.026 94.326,395.407 92.527 C 395.293 92.194,395.098 91.874,394.975 91.817 C 394.851 91.761,394.506 91.586,394.207 91.430 C 393.623 91.125,393.681 91.089,393.421 91.918 C 393.378 92.056,393.411 92.348,393.494 92.567 C 393.625 92.912,393.528 93.083,392.740 93.890 L 391.836 94.816 391.803 96.713 C 391.773 98.424,391.805 98.659,392.133 99.119 L 392.496 99.629 392.064 100.773 C 391.826 101.402,391.549 102.198,391.448 102.542 C 391.154 103.543,390.107 103.083,389.670 101.760 C 389.571 101.460,389.310 101.133,389.087 101.032 C 388.333 100.689,387.676 99.045,387.669 97.485 C 387.667 97.015,387.541 96.773,387.083 96.356 C 386.589 95.906,386.500 95.716,386.500 95.105 C 386.500 94.458,386.070 92.895,385.718 92.264 C 385.644 92.131,385.608 93.039,385.638 94.282 L 385.693 96.542 385.159 95.933 C 384.865 95.598,384.540 95.079,384.437 94.778 C 384.333 94.476,383.756 93.771,383.145 93.199 C 381.752 91.896,381.297 91.844,379.980 92.833 C 378.942 93.613,378.846 93.629,378.349 93.100 C 378.021 92.751,377.902 92.721,377.402 92.859 C 375.995 93.247,372.712 92.269,372.035 91.260 C 370.867 89.519,369.841 88.667,368.914 88.667 C 368.541 88.667,368.494 88.720,368.593 89.030 M371.236 109.292 C 371.057 109.452,370.574 109.872,370.163 110.226 C 368.598 111.572,365.818 114.421,365.754 114.745 C 365.717 114.931,365.593 115.817,365.480 116.713 L 365.273 118.344 366.084 119.167 L 366.895 119.991 366.097 121.599 C 365.187 123.433,363.649 125.148,362.607 125.492 L 362.000 125.693 362.000 127.019 L 362.000 128.346 361.290 128.788 C 360.522 129.266,359.076 130.878,358.656 131.725 C 358.513 132.014,358.297 132.228,358.176 132.201 C 358.056 132.174,357.573 132.232,357.104 132.329 C 352.631 133.254,351.748 133.341,351.418 132.890 C 351.235 132.640,351.095 132.687,349.983 133.378 C 346.850 135.323,342.872 136.928,338.339 138.075 L 336.262 138.601 337.173 139.112 C 338.475 139.841,342.314 141.500,342.700 141.500 C 342.834 141.500,343.404 141.688,343.968 141.917 C 344.532 142.146,345.164 142.334,345.372 142.335 C 345.580 142.337,346.221 142.485,346.797 142.666 C 348.158 143.093,352.216 143.697,353.917 143.727 C 355.710 143.758,357.672 142.910,362.667 139.945 C 364.144 139.068,364.336 138.927,366.688 137.001 C 375.086 130.127,377.578 118.458,372.445 110.042 C 371.745 108.895,371.707 108.871,371.236 109.292 M374.307 119.935 C 373.909 120.266,373.559 120.559,373.528 120.587 C 373.498 120.615,373.594 120.822,373.742 121.048 C 373.961 121.382,373.980 121.594,373.843 122.188 C 373.750 122.589,373.673 123.126,373.671 123.382 C 373.667 123.849,371.319 126.819,370.690 127.153 C 370.434 127.289,368.626 127.097,368.307 126.900 C 368.050 126.741,368.162 126.050,368.520 125.596 L 368.873 125.147 368.520 124.771 C 367.640 123.835,368.335 122.711,369.894 122.550 C 370.766 122.460,370.888 122.391,371.706 121.520 C 373.201 119.929,373.970 119.333,374.526 119.333 L 375.032 119.333 374.307 119.935 " stroke="none" fill="#dbdbdb" fill-rule="evenodd"></path><path id="path2" d="M308.785 1.116 C 308.741 1.190,308.654 1.512,308.590 1.833 C 308.527 2.154,308.296 2.979,308.079 3.667 C 307.861 4.354,307.442 5.704,307.147 6.667 C 306.853 7.629,306.556 8.492,306.488 8.583 C 306.419 8.675,306.211 9.203,306.025 9.757 C 305.657 10.851,303.970 14.240,303.576 14.674 C 303.443 14.822,303.333 15.025,303.333 15.126 C 303.333 15.227,303.239 15.409,303.125 15.530 C 303.010 15.651,302.699 16.087,302.433 16.500 C 302.167 16.912,301.848 17.310,301.725 17.383 C 301.601 17.457,301.500 17.592,301.500 17.685 C 301.500 18.528,293.539 26.673,291.094 28.333 C 290.756 28.563,290.370 28.851,290.236 28.975 C 290.101 29.098,289.487 29.542,288.871 29.961 C 288.254 30.381,287.712 30.773,287.667 30.834 C 287.592 30.933,285.578 32.350,284.588 33.000 C 284.379 33.137,284.030 33.384,283.812 33.547 C 282.750 34.346,281.129 35.505,280.025 36.253 C 278.254 37.454,278.106 37.560,277.872 37.781 C 277.756 37.892,277.362 38.150,276.997 38.355 C 276.632 38.560,276.333 38.789,276.333 38.864 C 276.333 38.939,276.240 39.001,276.125 39.003 C 276.010 39.005,275.692 39.188,275.417 39.411 C 274.627 40.050,272.814 41.399,272.478 41.597 C 272.311 41.696,271.995 41.959,271.777 42.180 C 271.560 42.402,270.940 42.958,270.400 43.417 C 268.651 44.902,267.307 46.233,266.784 47.000 C 266.502 47.413,266.221 47.788,266.158 47.833 C 265.321 48.443,264.704 52.410,265.263 53.588 C 266.764 56.751,272.416 56.968,282.200 54.238 C 282.997 54.015,283.773 53.833,283.925 53.833 C 284.077 53.833,284.812 53.653,285.559 53.434 C 286.306 53.214,287.704 52.836,288.667 52.595 C 289.629 52.354,291.242 51.932,292.250 51.658 C 293.258 51.384,294.178 51.161,294.293 51.163 C 294.408 51.165,295.196 50.982,296.043 50.757 C 296.890 50.531,298.371 50.147,299.333 49.902 C 300.296 49.658,301.758 49.286,302.583 49.076 C 303.408 48.866,305.021 48.458,306.167 48.170 C 307.313 47.882,308.887 47.468,309.667 47.251 C 310.446 47.034,311.871 46.661,312.833 46.423 C 313.796 46.184,315.146 45.831,315.833 45.638 C 316.521 45.446,317.470 45.223,317.943 45.144 C 318.416 45.065,319.279 44.851,319.860 44.669 C 320.441 44.487,321.068 44.337,321.252 44.335 C 321.436 44.334,322.186 44.142,322.919 43.907 C 323.651 43.673,324.550 43.420,324.917 43.345 C 325.283 43.271,326.183 43.042,326.917 42.837 C 332.811 41.192,337.659 40.186,341.841 39.739 C 344.755 39.428,345.931 39.474,343.500 39.804 C 340.577 40.200,336.709 41.190,333.513 42.359 C 331.854 42.966,326.354 45.638,325.083 46.454 C 324.717 46.690,324.096 47.096,323.703 47.358 C 323.311 47.619,322.952 47.833,322.906 47.833 C 322.860 47.833,322.243 48.307,321.536 48.886 C 316.725 52.825,312.910 53.501,305.903 51.654 C 302.883 50.858,302.609 51.139,305.174 52.402 C 311.153 55.347,313.699 62.689,311.498 70.634 C 311.316 71.291,311.167 71.954,311.167 72.106 C 311.167 72.427,310.301 74.847,309.727 76.130 C 309.510 76.613,309.333 77.091,309.333 77.192 C 309.333 77.369,308.872 78.488,308.059 80.281 C 307.843 80.757,307.667 81.190,307.667 81.243 C 307.667 81.296,307.479 81.637,307.250 82.000 C 307.021 82.363,306.833 82.733,306.833 82.823 C 306.833 82.912,306.608 83.367,306.333 83.833 C 306.058 84.300,305.833 84.755,305.833 84.844 C 305.833 84.933,305.646 85.304,305.417 85.667 C 305.188 86.030,305.000 86.434,305.000 86.566 C 305.000 86.698,304.935 86.831,304.855 86.861 C 304.775 86.892,304.508 87.292,304.263 87.750 C 304.018 88.208,303.562 88.996,303.250 89.500 C 302.938 90.004,302.530 90.679,302.343 91.000 C 301.838 91.864,301.329 92.667,300.588 93.767 C 300.225 94.308,299.850 94.873,299.755 95.024 C 299.413 95.569,297.502 97.974,296.925 98.586 C 296.599 98.931,296.333 99.245,296.333 99.283 C 296.333 99.856,285.978 109.279,282.167 112.174 C 281.387 112.766,280.690 113.344,280.617 113.458 C 280.543 113.573,280.379 113.667,280.251 113.667 C 280.123 113.667,279.921 113.805,279.801 113.973 C 279.609 114.245,278.714 114.900,277.811 115.431 C 277.641 115.531,277.351 115.750,277.167 115.917 C 276.982 116.084,276.688 116.302,276.512 116.402 C 276.337 116.502,275.205 117.258,273.996 118.083 C 271.636 119.695,270.920 120.154,269.989 120.655 C 269.662 120.832,269.296 121.094,269.177 121.238 C 269.057 121.382,268.892 121.500,268.810 121.500 C 268.666 121.500,266.833 122.651,266.667 122.847 C 266.572 122.958,264.124 124.663,263.694 124.917 C 263.382 125.101,262.375 125.842,261.550 126.495 C 261.257 126.727,260.844 127.045,260.633 127.201 C 257.791 129.310,254.534 132.338,250.750 136.389 C 248.385 138.921,248.325 139.093,250.038 138.428 C 252.556 137.451,253.352 137.167,253.574 137.167 C 253.705 137.167,254.248 136.989,254.781 136.771 C 258.630 135.202,263.468 134.380,270.702 134.067 C 274.552 133.900,279.269 134.573,283.789 135.933 C 284.544 136.160,285.819 136.539,286.623 136.773 C 287.426 137.008,288.421 137.315,288.833 137.455 C 289.246 137.596,289.927 137.805,290.347 137.922 C 290.767 138.038,291.479 138.279,291.930 138.458 C 292.866 138.829,293.499 139.057,294.917 139.536 C 295.853 139.852,296.931 140.224,298.917 140.915 C 299.375 141.074,300.237 141.389,300.833 141.613 C 301.429 141.838,302.217 142.125,302.583 142.251 C 302.950 142.377,304.112 142.794,305.167 143.178 C 306.221 143.562,307.421 143.975,307.833 144.096 C 308.246 144.218,309.596 144.655,310.833 145.067 C 313.842 146.070,315.804 146.667,316.096 146.667 C 316.228 146.667,317.029 146.850,317.876 147.074 C 319.614 147.534,323.429 148.324,326.416 148.844 C 331.539 149.735,339.965 149.761,344.083 148.898 C 344.725 148.764,345.775 148.580,346.417 148.490 C 348.071 148.257,352.332 147.081,354.627 146.223 C 355.201 146.009,355.745 145.833,355.836 145.833 C 355.927 145.833,356.390 145.646,356.865 145.417 C 357.340 145.188,357.801 145.000,357.889 145.000 C 358.151 145.000,360.474 143.843,360.591 143.655 C 360.650 143.559,361.122 143.282,361.641 143.040 C 367.866 140.130,373.812 134.249,376.089 128.748 C 379.596 120.277,377.990 112.131,371.659 106.269 C 366.382 101.384,356.448 99.810,348.417 102.587 C 348.233 102.651,348.394 102.488,348.774 102.226 C 356.641 96.792,358.325 86.721,352.236 81.515 C 346.811 76.876,337.621 78.963,333.838 85.693 C 333.324 86.608,333.508 86.483,334.241 85.420 C 338.910 78.640,350.442 78.895,353.746 85.851 C 356.291 91.212,354.030 97.147,347.388 102.536 C 346.119 103.565,346.166 103.606,348.198 103.248 C 351.303 102.701,351.977 102.645,355.417 102.647 C 366.827 102.657,372.934 106.914,374.931 116.250 C 375.543 119.109,375.096 124.292,374.019 126.833 C 372.886 129.508,372.536 130.224,371.780 131.417 C 369.257 135.396,365.594 138.547,359.783 141.737 C 358.421 142.484,355.355 143.832,355.002 143.837 C 354.657 143.843,352.994 144.408,352.364 144.734 C 352.081 144.880,351.701 145.000,351.519 145.000 C 351.336 145.000,350.601 145.180,349.885 145.400 C 342.212 147.754,335.827 148.179,327.167 146.911 C 324.295 146.490,318.985 145.361,316.151 144.568 C 315.363 144.347,314.585 144.167,314.423 144.167 C 314.152 144.167,312.700 143.751,309.500 142.757 C 308.813 142.543,307.575 142.161,306.750 141.907 C 305.925 141.654,304.780 141.271,304.207 141.057 C 303.633 140.842,303.072 140.667,302.961 140.667 C 302.849 140.667,302.269 140.486,301.671 140.265 C 301.073 140.045,299.683 139.564,298.583 139.197 C 296.069 138.358,295.172 138.049,293.917 137.587 C 292.950 137.231,292.610 137.110,291.000 136.546 C 290.587 136.402,289.906 136.148,289.485 135.982 C 289.064 135.816,288.427 135.609,288.068 135.521 C 287.710 135.433,286.854 135.169,286.167 134.935 C 284.273 134.288,282.566 133.815,281.610 133.672 C 281.137 133.602,279.962 133.390,279.000 133.203 C 276.766 132.767,273.330 132.498,269.833 132.483 C 266.836 132.470,266.818 132.352,269.750 131.923 C 278.626 130.625,284.932 130.953,295.167 133.245 C 296.129 133.460,297.854 133.838,299.000 134.085 C 300.932 134.501,302.014 134.746,307.167 135.934 C 308.221 136.177,309.694 136.554,310.441 136.771 C 311.188 136.989,312.020 137.167,312.289 137.167 C 312.559 137.167,313.711 137.347,314.848 137.567 C 321.151 138.785,327.985 139.353,332.167 139.007 C 333.313 138.912,334.649 138.801,335.137 138.761 C 335.624 138.721,336.112 138.617,336.220 138.530 C 336.328 138.442,336.754 138.316,337.167 138.248 C 348.546 136.385,360.677 126.629,363.078 117.409 C 363.373 116.276,363.430 116.370,362.211 115.960 C 340.581 108.681,321.074 94.262,317.057 82.583 C 315.859 79.100,315.560 77.709,315.355 74.667 C 315.088 70.687,315.608 66.676,316.770 63.750 C 316.989 63.200,317.167 62.635,317.167 62.495 C 317.167 62.355,317.266 62.093,317.387 61.912 C 317.508 61.731,317.708 61.321,317.831 61.000 C 318.090 60.324,318.941 58.869,319.956 57.364 C 320.347 56.786,320.667 56.255,320.667 56.185 C 320.667 56.115,320.854 55.882,321.083 55.667 C 321.313 55.451,321.500 55.212,321.500 55.135 C 321.500 54.743,325.992 50.240,327.205 49.417 C 327.578 49.163,328.879 48.187,329.210 47.911 C 329.372 47.777,329.568 47.667,329.646 47.667 C 329.724 47.667,329.979 47.517,330.212 47.334 C 330.702 46.948,333.606 45.474,334.583 45.114 C 334.950 44.979,336.150 44.532,337.250 44.119 C 345.402 41.065,355.100 41.283,365.667 44.759 C 366.354 44.985,367.008 45.170,367.120 45.169 C 367.233 45.168,367.720 45.344,368.204 45.562 C 370.687 46.677,372.189 47.333,372.257 47.333 C 372.562 47.333,372.226 46.828,371.750 46.572 C 371.429 46.399,371.167 46.200,371.167 46.129 C 371.167 46.058,371.060 46.000,370.929 46.000 C 370.798 46.000,370.582 45.892,370.450 45.759 C 370.318 45.627,369.206 45.021,367.980 44.412 C 366.753 43.804,365.401 43.124,364.975 42.903 C 364.549 42.681,364.120 42.500,364.022 42.500 C 363.923 42.500,363.447 42.323,362.963 42.106 C 362.479 41.889,361.521 41.504,360.833 41.252 C 360.146 40.999,359.246 40.659,358.833 40.496 C 358.421 40.332,357.483 40.084,356.750 39.943 C 356.017 39.802,354.704 39.537,353.833 39.353 C 347.746 38.069,337.172 38.886,329.059 41.268 C 328.312 41.487,327.531 41.667,327.323 41.667 C 326.970 41.667,325.814 41.941,322.083 42.909 C 321.258 43.124,319.721 43.523,318.667 43.796 C 315.756 44.552,314.506 44.865,313.500 45.090 C 312.996 45.203,311.983 45.462,311.250 45.665 C 308.729 46.364,304.594 47.402,302.527 47.855 C 301.762 48.022,300.750 48.268,300.277 48.402 C 299.804 48.535,298.460 48.836,297.291 49.071 C 296.122 49.305,294.247 49.684,293.125 49.912 C 277.953 53.001,272.218 52.169,274.273 47.177 C 274.881 45.701,278.806 40.833,279.388 40.833 C 279.435 40.833,279.761 40.549,280.112 40.202 C 280.463 39.855,281.612 38.831,282.667 37.926 C 283.721 37.021,284.749 36.123,284.951 35.932 C 285.153 35.740,285.528 35.420,285.784 35.220 C 287.038 34.244,289.780 31.946,290.006 31.683 C 290.146 31.519,290.346 31.355,290.449 31.318 C 291.059 31.098,298.000 24.273,298.000 23.893 C 298.000 23.842,298.206 23.589,298.458 23.331 C 299.065 22.708,299.260 22.486,300.569 20.917 C 301.180 20.183,301.827 19.423,302.007 19.227 C 302.186 19.030,302.333 18.798,302.333 18.711 C 302.333 18.623,302.488 18.412,302.677 18.240 C 302.867 18.069,303.368 17.439,303.792 16.839 C 304.216 16.240,304.661 15.690,304.781 15.617 C 304.902 15.543,305.000 15.404,305.000 15.307 C 305.000 15.211,305.169 14.924,305.375 14.671 C 305.581 14.418,305.836 14.070,305.942 13.897 C 306.091 13.653,306.100 13.768,305.980 14.417 C 305.711 15.880,304.998 19.358,304.579 21.250 C 304.355 22.258,303.977 24.096,303.739 25.333 C 303.501 26.571,303.129 28.371,302.912 29.333 C 302.696 30.296,302.472 31.383,302.414 31.750 C 302.357 32.117,302.133 33.242,301.917 34.250 C 301.702 35.258,301.328 37.058,301.087 38.250 C 300.845 39.442,300.465 41.184,300.241 42.123 C 300.017 43.061,299.833 44.022,299.833 44.259 C 299.833 44.496,299.642 45.443,299.409 46.365 C 298.925 48.274,298.931 48.298,299.826 48.002 C 300.443 47.799,300.494 47.733,300.586 47.017 C 300.680 46.294,300.987 44.687,301.849 40.417 C 302.052 39.408,302.268 38.208,302.328 37.750 C 302.388 37.292,302.642 35.942,302.893 34.750 C 303.720 30.815,304.250 28.045,305.427 21.500 C 305.666 20.171,306.075 17.958,306.334 16.583 C 306.594 15.208,307.006 12.958,307.249 11.583 C 307.491 10.208,307.869 8.183,308.087 7.083 C 308.306 5.983,308.626 4.296,308.800 3.333 C 308.973 2.371,309.145 1.480,309.182 1.354 C 309.256 1.104,308.913 0.899,308.785 1.116 M270.167 5.064 C 268.035 5.659,267.053 6.237,265.259 7.954 C 264.425 8.752,263.167 10.473,263.167 10.816 C 263.167 10.895,262.962 11.400,262.711 11.938 C 261.985 13.498,262.033 17.502,262.800 19.375 C 263.346 20.707,264.434 22.500,264.695 22.500 C 264.777 22.500,264.893 22.631,264.954 22.792 C 265.065 23.084,265.414 23.500,265.548 23.500 C 265.588 23.500,265.880 23.744,266.197 24.042 C 269.077 26.746,276.923 27.086,278.990 24.596 C 279.110 24.451,279.303 24.333,279.421 24.333 C 279.758 24.333,281.959 21.881,282.388 21.025 C 282.603 20.599,282.856 20.100,282.952 19.917 C 285.057 15.888,283.584 10.100,279.651 6.950 C 277.114 4.917,273.362 4.171,270.167 5.064 M339.667 12.438 C 333.473 13.605,329.487 19.660,330.917 25.731 C 331.204 26.950,332.025 28.772,332.542 29.335 C 332.702 29.510,332.833 29.718,332.833 29.799 C 332.833 29.879,333.040 30.142,333.292 30.382 C 333.544 30.622,333.825 30.894,333.917 30.985 C 335.017 32.077,335.771 32.576,337.417 33.303 L 338.750 33.892 341.417 33.898 C 344.477 33.904,345.710 33.551,347.749 32.085 C 349.104 31.110,351.167 28.767,351.167 28.203 C 351.167 28.149,351.327 27.775,351.522 27.371 C 352.838 24.653,352.303 18.946,350.570 17.213 C 350.440 17.083,350.333 16.925,350.332 16.863 C 350.329 16.442,347.761 14.189,346.539 13.536 C 344.839 12.626,341.498 12.093,339.667 12.438 M298.423 51.708 C 298.299 52.006,298.145 52.550,298.082 52.917 C 298.019 53.283,297.798 54.258,297.592 55.083 C 297.386 55.908,297.011 57.483,296.758 58.583 C 296.030 61.753,295.514 63.936,295.006 66.000 C 294.746 67.054,294.333 68.779,294.089 69.833 C 293.399 72.803,292.843 75.125,292.473 76.577 C 292.287 77.307,292.078 78.245,292.007 78.661 C 291.936 79.076,291.692 80.167,291.464 81.083 C 291.235 82.000,290.844 83.650,290.593 84.750 C 290.343 85.850,289.962 87.462,289.746 88.333 C 289.270 90.262,288.878 91.907,288.566 93.292 C 288.011 95.752,286.665 99.103,285.125 101.858 C 284.540 102.906,283.875 103.950,283.573 104.297 C 283.437 104.455,282.964 105.033,282.523 105.583 C 281.569 106.772,280.715 107.639,279.678 108.472 C 279.259 108.808,278.892 109.140,278.861 109.208 C 278.831 109.277,278.709 109.333,278.592 109.333 C 278.474 109.333,278.177 109.491,277.932 109.685 C 275.369 111.701,269.956 112.259,267.901 110.720 C 267.617 110.507,267.313 110.333,267.225 110.333 C 266.789 110.333,265.118 108.339,264.598 107.199 C 262.589 102.791,265.017 95.875,269.934 92.000 C 270.108 91.862,270.588 91.489,271.001 91.171 C 271.413 90.853,271.787 90.553,271.833 90.504 C 271.879 90.456,272.119 90.304,272.367 90.167 C 272.615 90.029,273.248 89.654,273.775 89.333 C 275.077 88.540,277.850 87.013,278.208 86.893 C 278.369 86.839,278.500 86.691,278.500 86.564 C 278.500 86.306,278.236 86.253,278.095 86.482 C 278.044 86.563,277.796 86.679,277.543 86.738 C 276.545 86.974,272.776 88.635,271.974 89.192 C 271.731 89.362,271.458 89.500,271.368 89.500 C 271.278 89.500,270.740 89.819,270.173 90.208 C 269.605 90.598,269.014 90.992,268.859 91.083 C 268.307 91.410,266.076 93.157,265.624 93.616 C 264.053 95.214,263.277 96.129,262.443 97.371 C 261.924 98.142,261.500 98.829,261.500 98.897 C 261.500 98.965,261.316 99.410,261.091 99.885 C 258.888 104.546,260.119 111.546,263.529 113.750 C 263.671 113.842,263.976 114.051,264.207 114.214 C 266.906 116.128,272.578 115.417,277.083 112.601 C 279.774 110.919,282.700 108.211,284.215 106.000 C 285.719 103.805,286.178 103.071,286.666 102.083 C 286.848 101.717,287.067 101.304,287.154 101.167 C 287.416 100.753,288.500 98.332,288.500 98.162 C 288.500 98.075,288.679 97.534,288.899 96.960 C 289.369 95.730,289.965 93.526,290.579 90.750 C 290.822 89.650,291.247 87.813,291.523 86.667 C 292.436 82.876,293.347 79.000,294.088 75.750 C 294.338 74.650,294.752 72.887,295.007 71.833 C 295.461 69.956,295.850 68.265,296.753 64.250 C 297.200 62.267,297.628 60.473,298.344 57.583 C 298.549 56.758,298.774 55.708,298.844 55.250 C 298.914 54.792,299.165 53.704,299.402 52.833 C 299.639 51.962,299.833 51.231,299.833 51.208 C 299.837 50.823,298.612 51.257,298.423 51.708 " stroke="none" fill="#e31c24" fill-rule="evenodd"></path><path id="path3" d="M354.667 57.618 C 349.904 57.934,345.561 58.904,340.667 60.745 C 339.567 61.158,335.677 63.074,335.000 63.535 C 334.679 63.754,334.098 64.112,333.708 64.330 C 333.319 64.549,333.000 64.777,333.000 64.837 C 333.000 64.897,332.802 65.037,332.559 65.147 C 330.887 65.909,325.423 70.932,323.201 73.750 C 321.379 76.061,321.113 77.728,322.744 76.620 C 324.536 75.402,326.195 73.655,329.283 69.734 C 331.850 66.474,333.429 65.885,336.167 67.167 C 336.946 67.531,337.724 67.831,337.897 67.832 C 338.270 67.834,339.333 68.462,339.333 68.680 C 339.333 69.115,340.866 68.395,341.177 67.814 C 341.325 67.537,341.550 67.500,343.067 67.500 L 344.790 67.500 345.616 66.842 C 346.558 66.092,347.259 65.791,350.750 64.639 C 354.168 63.511,355.691 62.557,356.462 61.066 L 356.840 60.333 357.799 60.333 L 358.758 60.333 359.979 59.105 L 361.199 57.876 360.628 57.769 C 359.923 57.637,355.913 57.535,354.667 57.618 M369.194 60.223 C 368.329 60.736,368.307 60.767,368.402 61.360 C 368.499 61.966,368.494 61.972,367.818 62.086 C 367.044 62.217,366.992 62.886,367.681 63.853 C 368.269 64.679,367.969 64.816,366.126 64.563 C 365.422 64.467,365.346 64.406,364.998 63.662 C 364.600 62.813,363.794 62.082,363.414 62.228 C 363.119 62.341,362.904 63.473,363.113 63.818 C 363.201 63.964,363.510 64.503,363.800 65.015 L 364.327 65.946 362.666 66.575 C 360.755 67.299,359.833 67.309,359.833 66.605 C 359.833 65.175,355.454 63.904,354.307 65.000 C 354.019 65.275,353.653 65.500,353.494 65.500 C 352.884 65.500,348.833 68.904,348.833 69.416 C 348.833 69.523,349.079 69.895,349.379 70.242 L 349.924 70.873 351.837 69.851 C 352.889 69.289,353.900 68.653,354.083 68.437 C 354.484 67.965,355.638 67.735,356.053 68.044 C 356.302 68.230,356.254 68.357,355.567 69.333 C 354.836 70.371,354.807 70.456,354.889 71.333 L 354.974 72.250 353.966 72.884 C 352.422 73.853,351.533 73.575,352.172 72.322 C 352.434 71.810,352.496 71.472,352.417 71.002 L 352.310 70.371 351.447 70.641 C 350.395 70.969,350.298 71.084,350.411 71.861 C 350.511 72.554,349.348 73.691,348.910 73.328 C 348.367 72.877,346.290 73.453,345.583 74.251 L 344.917 75.003 342.801 74.960 C 340.305 74.909,339.989 75.044,340.902 75.773 C 341.588 76.320,341.627 76.540,341.169 77.291 C 340.608 78.211,339.658 78.056,338.575 76.867 C 337.345 75.517,336.788 75.753,336.508 77.742 C 336.404 78.480,336.285 79.295,336.245 79.553 C 336.204 79.811,335.907 80.344,335.585 80.737 C 335.106 81.322,335.000 81.589,335.000 82.212 C 335.000 83.574,335.113 83.617,336.063 82.609 C 339.717 78.731,347.182 77.722,351.237 80.558 C 353.010 81.798,354.658 83.585,354.673 84.285 C 354.678 84.493,354.760 84.432,354.945 84.083 C 355.091 83.808,355.229 83.562,355.250 83.535 C 355.272 83.509,355.487 83.577,355.728 83.687 C 356.150 83.879,356.167 83.939,356.167 85.261 L 356.167 86.635 357.292 87.163 C 358.292 87.633,358.483 87.672,359.019 87.512 C 360.960 86.936,362.619 87.956,361.043 88.757 C 360.856 88.852,360.582 89.030,360.434 89.152 C 360.232 89.320,360.111 89.328,359.937 89.183 C 359.767 89.042,359.583 89.041,359.229 89.178 C 358.738 89.367,357.124 89.269,356.438 89.008 C 356.083 88.873,356.076 88.897,356.138 89.988 C 356.339 93.551,353.892 98.036,349.833 101.542 L 348.917 102.333 349.667 102.073 C 354.408 100.425,362.054 100.889,367.192 103.135 L 367.967 103.474 367.310 102.485 C 366.949 101.941,366.501 101.140,366.316 100.706 C 365.940 99.825,365.354 99.144,364.540 98.640 C 363.831 98.202,363.688 97.906,363.515 96.531 C 363.366 95.345,362.757 94.185,361.111 91.950 C 360.354 90.922,359.772 89.839,359.905 89.706 C 360.098 89.513,360.862 90.085,361.462 90.871 C 361.801 91.316,362.244 91.722,362.446 91.772 C 363.299 91.986,364.498 94.175,364.691 95.871 L 364.867 97.417 366.309 98.834 C 367.640 100.143,367.792 100.362,368.301 101.709 L 368.852 103.167 369.468 103.167 C 370.404 103.167,371.904 102.303,374.281 100.395 C 376.354 98.731,377.667 98.000,378.586 98.000 C 378.906 98.000,379.038 97.835,379.321 97.077 C 379.981 95.314,379.643 94.167,378.463 94.167 C 377.932 94.167,377.655 94.059,377.291 93.709 C 376.836 93.273,376.716 93.247,374.778 93.167 C 372.625 93.079,371.319 92.575,370.819 91.641 C 370.726 91.466,370.341 91.099,369.963 90.826 C 368.807 89.988,368.164 88.667,368.914 88.667 C 369.841 88.667,370.867 89.519,372.035 91.260 C 372.712 92.269,375.995 93.247,377.402 92.859 C 377.902 92.721,378.021 92.751,378.349 93.100 C 378.846 93.629,378.942 93.613,379.980 92.833 C 381.297 91.844,381.752 91.896,383.145 93.199 C 383.756 93.771,384.333 94.476,384.437 94.778 C 384.540 95.079,384.865 95.598,385.159 95.933 L 385.693 96.542 385.638 94.282 C 385.608 93.039,385.644 92.131,385.718 92.264 C 386.070 92.895,386.500 94.458,386.500 95.105 C 386.500 95.716,386.589 95.906,387.083 96.356 C 387.541 96.773,387.667 97.015,387.669 97.485 C 387.676 99.045,388.333 100.689,389.087 101.032 C 389.310 101.133,389.571 101.460,389.670 101.760 C 390.107 103.083,391.154 103.543,391.448 102.542 C 391.549 102.198,391.826 101.402,392.064 100.773 L 392.496 99.629 392.133 99.119 C 391.805 98.659,391.773 98.424,391.803 96.713 L 391.836 94.816 392.740 93.890 C 393.528 93.083,393.625 92.912,393.494 92.567 C 393.411 92.348,393.378 92.056,393.421 91.918 C 393.681 91.089,393.623 91.125,394.207 91.430 C 394.506 91.586,394.851 91.761,394.975 91.817 C 395.098 91.874,395.293 92.194,395.407 92.527 C 396.026 94.326,397.993 95.361,397.780 93.776 C 397.651 92.813,397.871 92.500,398.676 92.500 C 399.278 92.500,399.332 92.465,399.255 92.125 C 399.208 91.919,399.134 91.525,399.089 91.250 C 398.910 90.144,397.392 85.399,396.744 83.917 C 396.145 82.547,395.417 81.064,395.046 80.458 C 394.835 80.115,394.705 79.833,394.756 79.833 C 394.807 79.833,394.621 79.501,394.341 79.095 C 394.062 78.689,393.833 78.295,393.833 78.220 C 393.833 78.145,393.646 77.865,393.416 77.599 C 393.187 77.333,393.000 77.052,393.000 76.976 C 393.000 76.853,392.649 76.354,391.491 74.833 C 389.083 71.669,383.488 66.167,382.678 66.167 C 382.580 66.167,382.500 66.098,382.500 66.014 C 382.500 65.930,382.113 65.624,381.640 65.333 C 381.167 65.041,380.674 64.698,380.544 64.568 C 380.415 64.439,380.202 64.333,380.071 64.333 C 379.940 64.333,379.833 64.277,379.832 64.208 C 379.829 63.786,372.658 60.270,371.417 60.082 C 371.233 60.054,370.872 59.949,370.614 59.849 C 370.356 59.749,370.131 59.673,370.114 59.682 C 370.097 59.690,369.683 59.933,369.194 60.223 M371.318 78.732 C 371.424 78.860,371.734 79.056,372.006 79.169 C 372.562 79.400,372.658 79.882,372.239 80.345 C 372.000 80.609,372.021 80.676,372.489 81.156 C 372.810 81.484,373.000 81.849,373.000 82.140 C 373.000 82.448,373.193 82.789,373.583 83.167 C 374.462 84.018,374.021 84.836,372.686 84.831 C 371.701 84.827,371.568 84.658,371.771 83.667 L 371.946 82.814 371.186 82.145 C 370.539 81.576,370.348 81.491,369.898 81.576 C 369.398 81.670,368.500 80.988,368.500 80.514 C 368.500 80.226,369.331 80.007,369.778 80.177 C 370.441 80.429,370.608 80.283,370.732 79.348 C 370.848 78.474,370.985 78.330,371.318 78.732 M363.431 80.467 C 363.714 80.898,364.475 81.700,365.122 82.250 C 366.903 83.764,366.899 83.882,365.061 83.974 C 363.967 84.030,363.765 83.994,363.436 83.685 C 363.161 83.426,362.692 83.285,361.689 83.160 L 360.317 82.988 359.641 83.566 C 359.093 84.036,358.894 84.118,358.586 84.001 C 358.377 83.921,357.618 83.775,356.900 83.675 C 355.484 83.478,355.266 83.370,355.429 82.945 C 355.565 82.590,355.808 82.592,356.205 82.951 C 356.458 83.180,356.580 83.197,356.833 83.039 C 357.080 82.885,357.275 82.896,357.740 83.090 L 358.333 83.338 358.333 82.687 C 358.333 81.262,358.644 81.185,361.670 81.865 C 361.821 81.899,361.987 81.604,362.158 81.000 C 362.607 79.411,362.709 79.368,363.431 80.467 M343.000 80.670 C 340.621 80.849,338.037 81.816,336.515 83.097 C 335.808 83.692,335.851 83.747,337.042 83.784 C 338.141 83.817,339.608 84.231,339.167 84.384 C 339.029 84.431,338.542 84.557,338.083 84.664 C 337.625 84.770,336.451 85.259,335.474 85.750 C 334.497 86.240,333.647 86.591,333.585 86.529 C 333.523 86.467,333.497 86.496,333.528 86.592 C 333.600 86.821,332.818 88.500,332.638 88.500 C 332.437 88.500,332.462 88.394,332.838 87.658 L 333.176 86.995 332.713 87.211 C 332.458 87.330,331.882 87.602,331.432 87.816 C 330.982 88.030,330.307 88.244,329.932 88.292 C 329.043 88.405,328.979 88.464,328.080 90.023 C 326.845 92.164,326.184 95.251,326.863 95.704 C 327.076 95.847,327.662 96.349,328.167 96.821 C 329.960 98.501,330.803 99.146,336.250 103.005 C 338.179 104.372,342.719 107.153,344.333 107.957 C 344.563 108.071,345.462 108.548,346.333 109.018 C 348.319 110.088,349.059 110.462,350.833 111.294 C 355.123 113.306,355.547 113.478,359.917 114.988 C 363.635 116.274,363.333 116.112,363.333 116.813 C 363.333 119.073,359.286 125.638,355.973 128.750 C 354.142 130.471,351.618 132.500,351.310 132.500 C 351.230 132.500,351.258 132.650,351.372 132.833 C 351.697 133.354,352.478 133.285,357.104 132.329 C 357.573 132.232,358.056 132.174,358.176 132.201 C 358.297 132.228,358.513 132.014,358.656 131.725 C 359.076 130.878,360.522 129.266,361.290 128.788 L 362.000 128.346 362.000 127.019 L 362.000 125.693 362.607 125.492 C 363.649 125.148,365.187 123.433,366.097 121.599 L 366.895 119.991 366.084 119.167 L 365.273 118.344 365.480 116.713 C 365.593 115.817,365.717 114.931,365.754 114.745 C 365.818 114.421,368.600 111.571,370.164 110.226 C 370.574 109.872,371.081 109.431,371.289 109.245 L 371.668 108.906 371.042 108.229 C 366.677 103.504,358.842 101.716,349.107 103.225 C 346.583 103.616,345.671 103.683,346.014 103.453 C 346.501 103.127,349.385 100.589,349.828 100.096 C 350.152 99.737,350.571 99.287,350.759 99.096 C 353.145 96.681,354.715 93.030,354.654 90.035 L 354.624 88.574 351.804 88.600 C 350.253 88.615,348.938 88.673,348.881 88.730 C 348.589 89.022,346.983 88.011,345.607 86.670 C 345.528 86.593,345.555 86.255,345.668 85.912 C 345.903 85.201,345.837 85.122,344.750 84.804 C 344.383 84.698,343.930 84.474,343.743 84.308 C 343.556 84.142,343.162 83.923,342.868 83.820 C 342.466 83.680,342.333 83.534,342.333 83.234 C 342.333 82.715,342.216 82.728,341.271 83.354 C 340.359 83.958,340.218 83.916,340.565 83.143 C 341.073 82.008,341.223 81.917,342.204 82.144 L 343.080 82.346 343.932 81.423 C 344.400 80.915,344.739 80.512,344.684 80.526 C 344.628 80.540,343.871 80.605,343.000 80.670 M346.833 80.982 C 346.833 81.084,346.903 81.167,346.989 81.167 C 347.875 81.167,347.968 83.077,347.120 83.851 L 346.622 84.306 346.972 84.871 C 347.270 85.354,348.905 86.667,349.208 86.667 C 349.482 86.667,351.324 84.133,351.420 83.626 C 351.547 82.948,350.252 81.970,348.417 81.357 C 347.867 81.173,347.285 80.972,347.125 80.910 C 346.955 80.845,346.833 80.875,346.833 80.982 M352.000 84.474 C 352.000 84.947,352.069 85.333,352.154 85.333 C 352.492 85.333,353.315 86.205,353.418 86.671 C 353.561 87.323,353.833 87.307,353.833 86.647 C 353.833 86.100,352.936 84.462,352.341 83.924 C 352.002 83.616,352.000 83.619,352.000 84.474 M395.733 98.750 C 395.798 99.117,395.997 99.620,396.176 99.868 C 396.397 100.177,396.501 100.599,396.504 101.202 C 396.511 102.784,396.717 103.270,397.902 104.497 C 398.972 105.605,399.000 105.657,399.008 106.525 C 399.012 107.016,399.112 107.642,399.230 107.917 L 399.446 108.417 399.646 107.333 C 399.756 106.737,399.892 105.590,399.948 104.783 L 400.050 103.316 399.460 102.700 C 398.975 102.193,398.850 101.913,398.757 101.127 L 398.643 100.170 397.572 99.571 C 396.983 99.241,396.444 98.884,396.375 98.778 C 395.932 98.091,395.613 98.077,395.733 98.750 M372.676 103.801 C 372.361 103.833,371.950 103.966,371.764 104.096 C 371.572 104.231,371.027 104.334,370.505 104.336 L 369.583 104.339 370.125 104.794 C 370.423 105.045,370.911 105.455,371.209 105.705 C 372.365 106.678,373.000 107.325,373.001 107.533 C 373.002 107.652,373.151 107.525,373.333 107.250 C 373.534 106.946,373.665 106.468,373.666 106.032 C 373.666 105.476,373.786 105.165,374.195 104.657 C 374.485 104.296,374.691 103.973,374.653 103.940 C 374.527 103.830,373.260 103.741,372.676 103.801 M373.302 119.960 C 372.907 120.305,372.189 121.007,371.706 121.520 C 370.888 122.391,370.766 122.460,369.894 122.550 C 368.335 122.711,367.640 123.835,368.520 124.771 L 368.873 125.147 368.520 125.596 C 368.162 126.050,368.050 126.741,368.307 126.900 C 368.626 127.097,370.434 127.289,370.690 127.153 C 371.319 126.819,373.667 123.849,373.671 123.382 C 373.673 123.126,373.750 122.589,373.843 122.188 C 373.980 121.594,373.961 121.382,373.742 121.048 C 373.594 120.822,373.498 120.615,373.528 120.587 C 373.559 120.559,373.909 120.266,374.307 119.935 L 375.032 119.333 374.526 119.333 C 374.180 119.333,373.793 119.531,373.302 119.960 " stroke="none" fill="#afabac" fill-rule="evenodd"></path><path id="path4" d="M351.417 80.783 C 351.953 81.331,353.034 82.185,352.667 81.771 C 352.438 81.512,352.025 81.146,351.750 80.957 C 351.475 80.768,351.325 80.689,351.417 80.783 M349.667 81.718 C 349.667 81.757,349.985 81.999,350.375 82.256 C 350.765 82.513,350.995 82.617,350.888 82.487 C 350.681 82.236,349.667 81.598,349.667 81.718 M336.158 83.292 L 335.583 83.917 336.208 83.342 C 336.552 83.026,336.833 82.745,336.833 82.717 C 336.833 82.590,336.692 82.710,336.158 83.292 M351.917 83.500 C 352.368 83.958,352.775 84.333,352.821 84.333 C 352.867 84.333,352.535 83.958,352.083 83.500 C 351.632 83.042,351.225 82.667,351.179 82.667 C 351.133 82.667,351.465 83.042,351.917 83.500 M334.213 84.875 C 333.874 85.313,333.836 85.470,334.078 85.435 C 334.213 85.415,334.382 85.334,334.454 85.256 C 334.525 85.177,334.490 85.167,334.375 85.233 C 334.109 85.386,334.104 85.130,334.367 84.867 C 334.477 84.757,334.523 84.667,334.470 84.667 C 334.417 84.667,334.302 84.760,334.213 84.875 M333.192 86.833 C 333.096 87.108,333.081 87.333,333.159 87.333 C 333.237 87.333,333.379 87.108,333.475 86.833 C 333.571 86.558,333.586 86.333,333.508 86.333 C 333.430 86.333,333.288 86.558,333.192 86.833 M356.042 90.250 C 356.044 90.617,356.078 90.747,356.118 90.540 C 356.158 90.332,356.156 90.032,356.115 89.873 C 356.073 89.714,356.040 89.883,356.042 90.250 M324.167 93.250 C 324.478 93.571,324.770 93.833,324.815 93.833 C 324.861 93.833,324.644 93.571,324.333 93.250 C 324.022 92.929,323.730 92.667,323.685 92.667 C 323.639 92.667,323.856 92.929,324.167 93.250 M354.262 93.262 C 354.201 93.506,354.183 93.738,354.222 93.777 C 354.261 93.817,354.343 93.649,354.405 93.405 C 354.466 93.161,354.484 92.929,354.445 92.889 C 354.406 92.850,354.323 93.018,354.262 93.262 M325.833 94.917 C 326.331 95.421,326.776 95.833,326.822 95.833 C 326.868 95.833,326.498 95.421,326.000 94.917 C 325.502 94.412,325.057 94.000,325.011 94.000 C 324.966 94.000,325.335 94.412,325.833 94.917 M327.667 96.583 C 327.978 96.904,328.270 97.167,328.315 97.167 C 328.361 97.167,328.144 96.904,327.833 96.583 C 327.522 96.263,327.230 96.000,327.185 96.000 C 327.139 96.000,327.356 96.263,327.667 96.583 M350.324 99.625 L 349.750 100.250 350.375 99.676 C 350.957 99.141,351.077 99.000,350.949 99.000 C 350.922 99.000,350.640 99.281,350.324 99.625 M350.491 100.792 L 349.917 101.417 350.542 100.842 C 350.885 100.526,351.167 100.245,351.167 100.217 C 351.167 100.090,351.026 100.210,350.491 100.792 M348.324 101.625 L 347.750 102.250 348.375 101.676 C 348.957 101.141,349.077 101.000,348.949 101.000 C 348.922 101.000,348.640 101.281,348.324 101.625 M354.796 101.289 C 355.188 101.324,355.788 101.324,356.129 101.288 C 356.471 101.252,356.150 101.223,355.417 101.224 C 354.683 101.224,354.404 101.254,354.796 101.289 M358.708 101.286 C 358.960 101.324,359.373 101.324,359.625 101.286 C 359.877 101.248,359.671 101.217,359.167 101.217 C 358.662 101.217,358.456 101.248,358.708 101.286 M354.708 102.615 C 354.869 102.657,355.131 102.657,355.292 102.615 C 355.452 102.573,355.321 102.539,355.000 102.539 C 354.679 102.539,354.548 102.573,354.708 102.615 M358.292 102.784 C 358.498 102.824,358.835 102.824,359.042 102.784 C 359.248 102.745,359.079 102.712,358.667 102.712 C 358.254 102.712,358.085 102.745,358.292 102.784 M350.208 102.948 C 350.369 102.990,350.631 102.990,350.792 102.948 C 350.952 102.906,350.821 102.872,350.500 102.872 C 350.179 102.872,350.048 102.906,350.208 102.948 M346.167 103.417 C 345.992 103.627,346.022 103.665,346.355 103.654 C 346.572 103.646,346.656 103.602,346.541 103.556 C 346.425 103.510,346.374 103.403,346.425 103.319 C 346.577 103.074,346.393 103.144,346.167 103.417 M372.250 106.833 C 372.608 107.200,372.938 107.500,372.984 107.500 C 373.030 107.500,372.775 107.200,372.417 106.833 C 372.059 106.467,371.728 106.167,371.682 106.167 C 371.637 106.167,371.892 106.467,372.250 106.833 M342.167 106.908 C 342.167 106.954,342.392 107.108,342.667 107.250 C 342.942 107.392,343.167 107.471,343.167 107.425 C 343.167 107.379,342.942 107.226,342.667 107.083 C 342.392 106.941,342.167 106.862,342.167 106.908 M370.660 107.708 C 371.350 108.444,371.500 108.577,371.500 108.451 C 371.500 108.425,371.144 108.068,370.708 107.660 L 369.917 106.917 370.660 107.708 M344.000 107.908 C 344.000 107.954,344.225 108.108,344.500 108.250 C 344.775 108.392,345.000 108.471,345.000 108.425 C 345.000 108.379,344.775 108.226,344.500 108.083 C 344.225 107.941,344.000 107.862,344.000 107.908 M361.833 115.805 C 361.971 115.890,362.271 116.010,362.500 116.071 C 362.790 116.149,362.840 116.135,362.667 116.028 C 362.529 115.943,362.229 115.824,362.000 115.762 C 361.710 115.685,361.660 115.698,361.833 115.805 M377.705 117.000 C 377.705 117.321,377.740 117.452,377.782 117.292 C 377.823 117.131,377.823 116.869,377.782 116.708 C 377.740 116.548,377.705 116.679,377.705 117.000 M375.042 117.750 C 375.044 118.117,375.078 118.247,375.118 118.040 C 375.158 117.832,375.156 117.532,375.115 117.373 C 375.073 117.214,375.040 117.383,375.042 117.750 M377.883 118.500 C 377.883 119.004,377.915 119.210,377.953 118.958 C 377.991 118.706,377.991 118.294,377.953 118.042 C 377.915 117.790,377.883 117.996,377.883 118.500 M375.221 119.750 C 375.222 120.392,375.252 120.634,375.288 120.288 C 375.324 119.942,375.324 119.417,375.287 119.121 C 375.250 118.825,375.221 119.108,375.221 119.750 M377.887 121.500 C 377.887 122.096,377.917 122.340,377.954 122.042 C 377.991 121.744,377.991 121.256,377.954 120.958 C 377.917 120.660,377.887 120.904,377.887 121.500 M375.039 121.833 C 375.039 122.154,375.073 122.285,375.115 122.125 C 375.157 121.965,375.157 121.702,375.115 121.542 C 375.073 121.381,375.039 121.513,375.039 121.833 M356.496 127.958 L 355.083 129.417 356.542 128.004 C 357.344 127.227,358.000 126.570,358.000 126.545 C 358.000 126.424,357.809 126.604,356.496 127.958 M375.860 129.257 C 375.581 129.870,375.634 130.001,375.936 129.444 C 376.077 129.183,376.162 128.939,376.123 128.901 C 376.085 128.863,375.967 129.023,375.860 129.257 M370.594 132.958 C 370.234 133.419,370.205 133.496,370.485 133.252 C 370.819 132.960,371.260 132.333,371.131 132.333 C 371.105 132.333,370.863 132.615,370.594 132.958 M369.491 134.292 L 368.917 134.917 369.542 134.342 C 370.123 133.808,370.243 133.667,370.116 133.667 C 370.088 133.667,369.807 133.948,369.491 134.292 M370.579 136.708 L 369.417 137.917 370.625 136.754 C 371.747 135.675,371.909 135.500,371.787 135.500 C 371.762 135.500,371.218 136.044,370.579 136.708 M366.740 137.042 L 366.250 137.583 366.792 137.094 C 367.297 136.638,367.410 136.500,367.281 136.500 C 367.252 136.500,367.009 136.744,366.740 137.042 M340.083 137.500 C 339.873 137.590,339.842 137.643,340.000 137.643 C 340.137 137.643,340.400 137.579,340.583 137.500 C 340.793 137.410,340.824 137.357,340.667 137.357 C 340.529 137.357,340.267 137.421,340.083 137.500 M359.125 141.929 C 358.502 142.267,358.540 142.407,359.167 142.083 C 359.442 141.941,359.667 141.789,359.667 141.746 C 359.667 141.638,359.649 141.645,359.125 141.929 " stroke="none" fill="#d27274" fill-rule="evenodd"></path></g></svg>